<?xml version="1.0" encoding="UTF-8" standalone="no"?><svg width="281" height="168" viewBox="0 0 281 168" fill="none" xmlns="http://www.w3.org/2000/svg">
<g opacity="0.8">
<path d="M56.1836 62.6072V104.28L225.816 104.393V62.6072H56.1836Z" fill="#888888"/>
<path d="M124.008 72.603L114.509 86.538C113.52 88.0128 111.787 88.9042 109.973 88.9042C107.019 88.9042 104.574 86.4998 104.574 83.5984C104.574 80.6543 107.019 78.2543 109.994 78.2543C110.289 78.2169 110.684 78.176 110.96 78.176C113.011 78.176 115.1 79.0282 116.52 80.4619L119.357 76.2025C117.15 73.9584 113.877 72.522 110.604 72.522C104.494 72.522 98.8963 77.517 98.8963 83.5574C98.8963 89.5623 103.903 94.478 110.015 94.478C112.971 94.478 115.927 93.2393 117.978 91.1857H124.522L124.561 94.478H130.24V72.603H124.009H124.008ZM121.409 86.384L124.522 82.0898L124.561 86.384H121.41H121.409Z" fill="#FAFAFA"/>
<path d="M141.12 94.4778H135.443V77.7109H131.028V72.6393L145.534 72.6028V77.7109H141.12V94.4778V94.4778Z" fill="#FAFAFA"/>
<path d="M164.459 72.6031L158.781 72.6046L158.742 80.7716H152.039L151.996 72.6028H146.324V94.4778H152.039V85.8423H158.781V94.4778H164.458V72.6028L164.459 72.6031Z" fill="#FAFAFA"/>
<path d="M209.953 72.603V82.7827L202.147 72.603L196.981 72.6387L196.942 80.6169C195.641 75.9701 191.186 72.603 186.219 72.603C180.109 72.603 175.102 77.517 175.102 83.5575C175.102 85.497 175.692 87.4669 176.637 89.1731H171.013V72.603H165.228V94.478H178.453V91.4173C180.542 93.3159 183.381 94.478 186.219 94.478C191.186 94.478 195.563 91.1857 196.942 86.5381L196.981 94.478H202.699V83.8326L210.462 94.478H215.625L215.633 72.603H209.954H209.953ZM186.219 89.1348C183.105 89.1348 180.542 86.6574 180.542 83.5575C180.542 80.5003 183.105 77.9845 186.219 77.9845C189.374 77.9845 191.937 80.5003 191.937 83.5575C191.937 86.6574 189.374 89.1348 186.219 89.1348Z" fill="#FAFAFA"/>
<path d="M92.0305 89.1724V86.1108H98.1232L98.1124 80.7702H92.0305V77.9838H98.7462L98.7346 72.6023L85.8041 72.6379V80.1504C84.4638 76.0469 80.5989 73.0253 76.1839 72.6379L66.3676 72.6023V94.4764H76.2243C80.5989 94.0908 84.4638 91.071 85.8041 87.0049V94.4764H98.7463L98.7348 89.1724H92.0308H92.0305ZM79.5352 86.8873C79.1819 88.3602 77.7615 89.4031 76.2242 89.4422H72.5975V77.7095H76.2242C77.7615 77.7095 79.1819 78.7986 79.5352 80.3063C79.8913 81.3135 80.0881 82.4747 80.0881 83.5567C80.0881 84.6823 79.8913 85.8418 79.5352 86.8873Z" fill="#FAFAFA"/>
</g>
</svg>
