<?xml version="1.0" encoding="UTF-8" standalone="no"?><svg width="281" height="167" viewBox="0 0 281 167" fill="none" xmlns="http://www.w3.org/2000/svg">
<g opacity="0.8">
<path d="M211.646 128.347C211.628 128.077 211.484 127.933 211.215 127.879C209.813 127.627 208.376 127.429 206.993 127.069C204.873 126.51 202.699 126.168 200.561 125.754C198.297 125.304 196.015 124.836 193.716 124.548C192.35 124.386 190.985 124.152 189.637 123.918C187.104 123.485 184.571 123.107 182.02 122.837C180.259 122.639 178.516 122.441 176.774 122.207C173.935 121.847 171.096 121.577 168.24 121.433C167.359 121.397 166.479 121.145 165.563 121.127C164.988 121.109 164.826 120.46 164.808 120.082C164.754 118.804 164.467 117.507 165.132 116.265C165.401 115.761 165.671 115.527 166.263 115.527C168.24 115.509 170.18 115.941 172.138 115.959C173.594 115.977 175.031 116.211 176.45 116.373C177.906 116.535 179.415 116.445 180.834 116.913C180.96 116.949 181.086 116.931 181.229 116.931C183.206 117.021 185.164 117.435 187.122 117.633C188.2 117.741 189.242 117.976 190.32 118.084C191.236 118.174 192.189 118.318 193.105 118.534C194.273 118.822 195.494 118.894 196.68 119.128C197.65 119.326 198.621 119.524 199.573 119.65C201.172 119.884 202.753 120.28 204.334 120.514C205.088 120.64 205.825 120.911 206.562 121.019C208.017 121.235 209.4 121.685 210.855 121.901C211.862 122.045 212.814 122.441 213.82 122.585C214.305 122.657 214.431 123.972 214.197 124.8C213.874 125.916 213.514 126.979 212.814 127.933C212.742 128.023 212.778 128.185 212.76 128.311C212.383 128.347 212.023 128.347 211.646 128.347Z" fill="#888888"/>
<path d="M56.9034 76.0393C57.3705 75.9492 57.3885 75.4811 57.64 75.193C58.9156 73.8065 60.4607 72.7081 61.916 71.5197C63.7485 70.0072 65.8326 68.8728 67.9346 67.7744C70.4858 66.442 73.1448 65.3616 75.8936 64.5513C77.6004 64.0471 79.3252 63.597 81.1038 63.3269C82.4872 63.1108 83.8706 62.8948 85.254 62.6967C87.7872 62.3546 90.3205 62.1745 92.8717 62.1205C94.0215 62.1025 94.7401 62.4806 94.8479 63.579C94.9917 64.8394 95.2432 66.2079 94.3808 67.3963C94.1293 67.7384 93.8957 67.9185 93.5005 67.8825C91.632 67.7744 89.7635 67.9545 87.913 68.0985C86.5835 68.2066 85.236 68.3326 83.8886 68.6027C82.4513 68.8908 81.014 69.1249 79.5947 69.467C77.4387 70.0072 75.3546 70.7634 73.2885 71.5917C71.5638 72.276 69.9289 73.1403 68.3299 74.0586C66.8567 74.8869 65.4553 75.8772 64.1797 77.0116C63.2994 77.8039 62.2933 78.4161 61.5746 79.4064C61.377 79.6945 60.9638 79.7665 60.5146 79.6585C59.0414 79.3164 58.1251 78.308 57.2268 77.2097C57.119 77.0836 57.0651 76.9576 56.8854 76.9396C56.9034 76.6515 56.9034 76.3454 56.9034 76.0393Z" fill="#888888"/>
<path d="M149.465 41.0532C149.357 41.1252 150.471 41.1072 150.471 41.1072C150.471 41.1072 150.238 42.5477 150.058 43.1779C149.267 46.0409 148.423 48.9039 147.615 51.7669C147.471 52.2891 147.112 52.5231 146.68 52.4691C146.177 52.3971 145.764 52.073 145.872 51.4428C146.105 49.9123 146.321 48.3817 146.644 46.8692C146.914 45.5908 147.058 44.2763 147.273 42.9979C147.381 42.3497 147.507 41.7014 147.633 41.0532C148.333 41.0532 148.728 41.0532 149.465 41.0532Z" fill="#818181"/>
<path d="M147.597 41.1252C147.597 41.1252 147.633 40.8551 148.064 40.8011C148.477 40.747 150.256 40.8731 150.256 40.8731C150.256 40.8731 150.453 40.8911 150.471 41.1072L149.878 41.4853" fill="#818181"/>
<path d="M144.345 102.238C145.513 101.05 146.339 99.6631 147.129 98.2766C147.956 96.8001 148.675 95.2516 149.519 93.7931C150.759 91.6504 151.908 89.4176 153.921 87.8151C156.202 85.9964 159.275 86.4646 160.676 89.0935C160.91 89.5076 160.91 90.3179 161.395 90.2819C161.826 90.2459 162.041 89.5076 162.293 89.0575C163.443 87.0228 164.862 85.1862 166.946 84.1058C170.09 82.4672 173.54 83.3315 175.516 86.4286C176.594 88.1212 177.151 89.9758 177.438 91.9745C177.618 93.1629 177.708 94.3333 177.654 95.5037C177.546 98.4387 176.935 101.284 175.516 103.895C174.564 105.659 173.306 107.172 171.438 108.072C170.198 108.666 168.869 108.81 167.521 108.684C166.82 108.612 166.731 107.91 166.659 107.442C166.461 106.127 166.587 104.813 167.234 103.606C167.377 103.354 167.539 103.102 167.862 103.102C169.354 103.102 170.054 102.022 170.593 100.906C171.276 99.5551 171.707 98.1146 171.797 96.548C171.833 95.8638 172.156 95.1255 172.013 94.4413C171.725 93.0188 171.815 91.5063 171.06 90.1919C170.899 89.9038 170.719 89.6157 170.503 89.3636C170.198 89.0035 169.911 88.9314 169.443 89.2555C168.114 90.2099 167.359 91.5603 166.587 92.9468C165.778 94.4233 165.042 95.9538 164.503 97.5564C164.054 98.8888 163.586 100.203 163.245 101.59C162.976 102.67 162.652 103.75 162.437 104.831C162.185 106.091 161.988 107.388 161.916 108.666C161.844 110.089 161.682 111.511 161.52 112.916C161.197 115.689 160.82 118.462 160.46 121.234C160.281 122.621 160.011 124.007 159.832 125.394C159.616 127.158 158.466 127.447 156.975 126.924C156.454 126.744 155.897 126.798 155.34 126.582C154.172 126.114 154.011 125.718 154.19 124.494C154.406 122.945 154.729 121.397 154.855 119.848C154.981 118.353 155.142 116.841 155.412 115.4C156.526 109.062 156.49 102.706 156.436 96.314C156.436 95.7198 156.202 95.1436 156.274 94.5313C156.292 94.4053 156.274 94.2432 156.131 94.1892C155.933 94.1172 155.861 94.3153 155.771 94.4053C155.322 94.8194 155.178 95.4137 154.891 95.9358C153.202 99.0149 151.711 102.22 149.573 105.011C148.172 106.848 146.465 108.414 143.86 108.27C141.794 108.162 140.338 107.082 139.35 105.353C138.685 104.201 138.398 102.904 138.182 101.572C137.769 98.9789 137.751 96.35 137.392 93.7391C137.374 93.649 137.32 93.541 137.248 93.397C136.565 93.8471 136.17 94.5133 135.775 95.1256C134.607 96.9082 133.619 98.7988 132.721 100.707C132.325 101.554 131.876 102.382 131.625 103.3C131.283 104.471 129.72 105.443 128.642 105.263C126.882 104.957 126.055 104.057 126.073 102.4C126.109 99.357 125.875 96.332 125.552 93.3249C125.426 92.1905 125.121 91.0382 124.654 89.9038C123.791 90.462 123.396 91.3263 123.001 92.1185C121.528 95.0175 120.342 98.0425 119.354 101.14C118.779 102.958 118.294 104.813 117.593 106.595C116.982 108.18 115.096 108.9 113.425 107.766C112.473 107.118 111.97 106.163 112.095 105.065C112.401 102.454 112.383 99.8432 112.365 97.2503C112.347 96.314 111.934 95.4317 111.88 94.4593C110.892 96.0979 109.975 97.7905 108.897 99.357C107.802 100.96 106.49 102.382 104.873 103.57C103.292 104.723 101.567 105.065 99.7527 104.813C97.6506 104.525 95.9618 103.408 94.9737 101.446C93.5723 98.6367 93.5364 95.6477 93.8059 92.6047C93.8777 91.8304 93.8777 91.0562 93.9137 90.2819C93.9676 89.2375 94.3269 88.2472 94.3089 87.2028C94.291 86.6627 94.6323 86.1945 94.6683 85.6363C94.6862 85.2402 96.2493 84.682 96.6984 84.9341C97.0757 85.1321 97.435 85.1501 97.8123 85.1681C98.6208 85.2042 99.2856 85.5823 99.8964 86.1045C100.256 86.4106 100.274 86.7887 100.166 87.1668C99.4293 90.1198 99.3754 93.1089 99.3934 96.1339C99.3934 96.9622 99.591 97.7364 99.8245 98.4927C100.076 99.303 100.651 99.429 101.388 98.9789C102.609 98.2226 103.472 97.1782 104.19 95.9538C105.035 94.5493 106.005 93.2169 106.831 91.7944C107.802 90.1378 108.951 88.6613 110.568 87.563C111.628 86.8427 113.605 86.9508 114.844 87.8151C115.922 88.5533 116.497 89.6517 117.126 90.8581C117.719 89.8317 118.24 88.8954 118.797 87.9951C119.731 86.4646 120.827 85.0961 122.408 84.1958C124.259 83.1335 126.235 83.4035 127.888 84.826C129.451 86.1765 130.026 87.9771 130.565 89.8497C130.744 90.498 130.888 91.1282 130.906 92.0105C131.535 91.2362 132.038 90.642 132.523 90.0298C133.601 88.6793 134.93 87.671 136.511 87.1848C137.805 86.7887 139.153 86.9688 140.338 87.8151C141.758 88.8054 142.368 90.2459 142.71 91.8664C143.231 94.3513 143.357 96.8721 143.536 99.411C143.68 100.239 143.68 101.32 144.345 102.238Z" fill="#888888"/>
<path d="M180.798 94.1713C180.6 92.5327 180.942 90.6061 181.319 88.6974C181.732 86.5367 182.289 84.4119 182.882 82.2872C183.439 80.2705 184.122 78.2898 184.751 76.2912C185.379 74.2745 186.188 72.3118 186.925 70.3311C187.122 69.7909 188.074 69.5208 188.919 69.8089C189.619 70.043 190.32 70.2951 190.967 70.6552C192.584 71.5375 192.584 71.7716 191.955 73.3201C190.985 75.715 190.123 78.1638 189.35 80.6306C188.775 82.4493 188.29 84.3219 187.787 86.1585C187.212 88.2653 186.799 90.408 186.529 92.5507C186.296 94.4774 186.17 96.4941 187.122 98.3307C187.464 98.9789 188.362 99.321 189.009 99.069C190.158 98.6188 191.111 97.8625 191.955 96.9982C193.231 95.7018 194.273 94.2073 195.297 92.7128C196.339 91.1822 197.129 89.5257 197.992 87.9231C199.213 85.6724 201.028 83.9438 203.435 83.1155C206.31 82.1432 209.346 83.0075 210.784 86.1225C211.394 87.455 211.592 88.9135 211.305 90.48C210.999 92.1366 210.317 93.5771 209.328 94.8195C208.34 96.0619 206.993 96.9622 205.394 97.4124C204.172 97.7545 202.95 98.0966 201.657 98.0246C201.298 98.0066 201.226 98.2227 201.226 98.5288C201.315 100.113 202.322 102.31 204.711 102.274C207.154 102.238 209.059 101.104 210.856 99.6271C212.922 97.9346 214.467 95.8098 215.581 93.379C216.048 92.3707 216.281 91.2723 216.443 90.1919C216.677 88.7514 216.73 88.4993 218.168 88.3733C219.21 88.2833 220.288 88.1752 221.312 88.6434C221.815 88.8775 222.156 89.1115 222.12 89.7598C222.03 91.8125 221.563 93.7391 220.791 95.6478C219.982 97.5924 218.922 99.3751 217.593 100.942C215.437 103.462 212.94 105.605 209.849 106.938C208.071 107.712 206.22 107.928 204.28 107.874C202.825 107.838 201.495 107.55 200.237 106.83C198.656 105.929 197.561 104.615 196.68 103.048C196.519 102.76 196.321 102.454 196.285 102.148C196.249 101.788 196.177 101.374 195.89 101.284C195.602 101.194 195.351 101.59 195.117 101.824C193.59 103.264 191.811 104.381 189.745 104.669C186.332 105.137 183.745 104.021 181.966 100.834C181.229 99.5011 180.906 98.0066 180.834 96.4761C180.762 95.8458 180.798 95.1796 180.798 94.1713ZM205.717 89.3276C205.753 88.5894 205.484 88.3553 204.855 88.7154C203.723 89.3636 202.986 90.39 202.483 91.5604C202.375 91.8305 202.304 92.2806 202.896 92.2446C204.298 92.1366 205.663 90.7321 205.717 89.3276Z" fill="#888888"/>
<path d="M140.895 120.55C138.38 120.55 135.865 120.478 133.349 120.568C130.726 120.658 128.085 120.748 125.462 120.946C123.863 121.072 122.264 120.928 120.701 121.217C118.294 121.649 115.814 121.433 113.425 121.937C113.371 121.955 113.317 121.955 113.263 121.955C111.754 121.793 110.281 122.171 108.826 122.369C107.712 122.513 106.562 122.495 105.43 122.801C104.406 123.089 103.238 123.053 102.142 123.179C100.795 123.341 99.4293 123.521 98.0818 123.701C95.5486 124.043 93.0513 124.656 90.536 125.016C89.6377 125.142 88.7394 125.358 87.8231 125.448C86.7272 125.556 85.6313 125.862 84.5174 126.078C83.2957 126.33 82.074 126.6 80.8343 126.744C80.439 126.798 80.1156 127.393 79.6485 126.906C79.1275 126.366 78.858 125.682 78.6244 125.034C78.4268 124.476 78.2651 123.863 78.1753 123.251C77.9956 121.919 78.4448 121.253 79.7563 121.162C80.6007 121.09 81.3912 120.802 82.1997 120.64C83.116 120.46 84.0143 120.298 84.9306 120.118C85.9187 119.902 86.9248 119.668 87.913 119.524C88.9909 119.362 90.0689 119.074 91.1648 119.002C92.7638 118.912 94.3269 118.552 95.8899 118.3C98.7286 117.867 101.549 117.435 104.388 117.111C105.933 116.931 107.496 116.769 109.041 116.571C110.496 116.373 111.97 116.499 113.389 116.121C114.197 115.905 115.042 115.977 115.85 115.941C117.252 115.851 118.617 115.599 120.019 115.581C122.803 115.527 125.606 115.383 128.373 115.148C131.211 114.914 134.05 115.13 136.871 114.914C140.985 114.608 145.117 114.824 149.231 114.77C151.136 114.752 151.226 114.68 151.567 116.661C151.747 117.741 151.657 118.804 151.244 119.83C151.028 120.388 150.579 120.55 150.004 120.532C146.986 120.532 143.949 120.55 140.895 120.55Z" fill="#888888"/>
<path d="M79.3431 95.2696C79.2892 94.6034 79.397 93.7751 79.2173 92.9468C79.0916 92.3166 78.8401 92.3886 78.4268 92.5867C77.5824 92.9828 76.7201 93.379 75.8756 93.7571C75.5702 93.9012 75.2828 93.8471 75.0492 93.577C73.9892 92.3886 73.4861 90.9842 73.4502 89.4176C73.4322 88.8594 73.7556 88.5173 74.2587 88.2832C75.4804 87.7431 76.6841 87.1669 77.8879 86.6267C78.3011 86.4466 78.337 86.1405 78.2472 85.7984C77.9058 84.4479 77.6004 83.1155 77.2411 81.765C76.8638 80.3245 76.4506 78.902 76.0373 77.4795C75.8756 76.9574 75.8577 76.3812 75.5882 75.877C75.3546 75.4448 75.7499 75.1027 76.0733 74.8866C77.2051 74.1304 78.4628 73.6982 79.8462 73.6982C80.475 73.6982 80.978 73.9143 81.1757 74.6346C81.5709 76.1651 82.074 77.6776 82.4692 79.2081C82.9184 80.9007 83.3316 82.6113 83.7448 84.3219C83.8347 84.682 84.0862 84.754 84.4455 84.79C85.4875 84.9161 86.4397 84.3579 87.4818 84.4299C89.0269 84.538 89.1347 84.0518 89.6737 86.1405C89.9431 87.1669 89.9791 88.2472 89.5659 89.2736C89.3503 89.8318 88.955 90.1559 88.3082 90.0839C87.3201 89.9758 86.4218 90.498 85.4157 90.444C84.8587 90.408 84.715 91.0022 84.8228 91.5063C85.1821 93.1269 85.1282 94.7655 85.1102 96.386C85.0923 97.8625 84.7689 99.285 84.5713 100.743C84.3197 102.616 83.5652 104.273 82.7207 105.893C82.2716 106.74 81.6607 107.532 80.8702 108.162C79.918 108.936 78.9838 109.765 77.798 110.161C76.3428 110.629 74.9055 110.881 73.2885 110.485C70.1624 109.729 68.1502 107.658 66.2458 105.299C65.3654 104.201 64.7187 102.994 63.982 101.824C63.1017 100.437 63.3353 99.7171 64.7725 98.8528C65.5631 98.3847 66.4434 98.0786 67.3058 97.7905C68.0424 97.5564 68.4556 98.0786 68.761 98.6548C69.857 100.707 71.0966 102.634 72.9292 104.129C73.54 104.633 74.2587 104.777 74.9234 105.065C75.1929 105.191 75.3906 104.921 75.6241 104.831C77.259 104.219 78.0136 102.85 78.5706 101.374C79.2712 99.4471 79.379 97.4484 79.3431 95.2696Z" fill="#888888"/>
<path d="M138.506 63.6508C138.506 66.0096 139.692 67.6122 141.668 68.7286C143.303 69.6649 144.92 70.6012 146.231 72.0057C146.68 72.4739 147.004 73.014 147.363 73.5542C147.669 74.0044 147.273 74.3105 147.058 74.5446C146.573 75.0847 145.908 75.4269 145.225 75.6609C144.884 75.769 144.453 75.859 144.165 75.4449C143.141 73.8603 141.542 73.014 139.979 72.1137C137.895 70.9073 136.224 69.3768 135.362 67.036C134.643 65.0913 134.553 63.1467 135.074 61.13C135.667 58.7892 137.015 57.0246 138.991 55.6921C140.626 54.6118 142.458 53.9815 144.381 54.1256C148.261 54.3957 151.1 56.3404 152.771 59.9056C153.472 61.4001 153.508 63.0566 153.579 64.6772C153.633 65.7936 153.561 66.928 153.957 67.9903C154.244 68.7286 153.885 69.1427 153.328 69.5028C152.915 69.7729 152.448 69.953 151.98 70.061C150.956 70.2951 150.543 70.007 150.31 68.9086C149.95 67.2701 149.735 65.5955 149.753 63.9029C149.771 62.5165 149.411 61.238 148.567 60.1396C147.165 58.303 145.225 57.6368 143.015 58.0509C140.949 58.4291 139.458 59.6715 138.757 61.7602C138.578 62.3724 138.524 62.9846 138.506 63.6508Z" fill="#818181"/>
<path d="M99.591 81.3509C98.531 81.513 97.507 80.9908 96.5009 80.4686C95.7283 80.0725 95.9619 79.3162 96.0876 78.74C96.3392 77.5696 96.7883 76.4352 97.0758 75.2828C97.2914 74.4545 97.6327 73.6623 97.7944 72.798C97.8842 72.3118 98.3154 72.0057 98.8724 71.9877C100.435 71.9337 101.801 72.4559 103.023 73.3922C103.364 73.6443 103.418 74.0224 103.31 74.3645C103.023 75.3909 102.663 76.4172 102.358 77.4436C102.088 78.3619 101.927 79.3162 101.639 80.2345C101.334 81.2609 101.316 81.3509 100.256 81.3509C100.094 81.3509 99.9144 81.3509 99.591 81.3509Z" fill="#888888"/>
<path d="M155.735 72.924C155.735 73.1581 155.699 73.3562 155.538 73.5542C153.759 75.5709 151.801 77.3716 149.519 78.8301C148.98 79.1722 148.567 79.0641 148.136 78.704C147.471 78.1818 147.076 77.4616 146.77 76.6873C146.626 76.3092 146.824 76.0931 147.112 75.9131C149.321 74.4906 151.28 72.762 153.112 70.8713C153.364 70.6192 153.633 70.5472 153.957 70.6192C154.657 70.8353 155.717 72.2038 155.735 72.924Z" fill="#818181"/>
<path d="M163.604 52.5952C163.658 53.0634 163.407 53.3334 163.03 53.5315C160.371 55.026 157.712 56.5025 155.053 58.0151C154.316 58.4292 153.957 57.979 153.615 57.4569C153.13 56.7366 153.148 56.1964 153.687 55.8183C156.184 54.0177 158.682 52.2351 161.197 50.4345C161.52 50.2004 161.862 50.0743 162.203 50.3264C162.994 50.8666 163.479 51.6229 163.604 52.5952Z" fill="#818181"/>
<path d="M133.242 43.862C133.655 43.826 133.906 43.9701 134.104 44.3482C135.595 47.0671 137.104 49.7861 138.632 52.487C138.847 52.8651 138.793 53.0812 138.578 53.3873C137.859 54.3776 136.907 54.3956 136.206 53.4233C134.535 51.0825 132.882 48.7237 131.194 46.4009C130.762 45.8067 130.816 45.3025 131.283 44.8164C131.822 44.2582 132.451 43.8981 133.242 43.862Z" fill="#818181"/>
<path d="M132.02 61.6341C129.972 61.292 128.049 60.9859 126.109 60.6618C125.175 60.4998 124.241 60.3377 123.288 60.2117C122.372 60.1036 122.121 59.7795 122.21 58.7171C122.282 57.8168 122.803 57.2586 123.576 57.4027C124.492 57.5647 125.372 57.8348 126.271 58.0869C128.121 58.6091 129.972 59.1313 131.822 59.6715C132.146 59.7615 132.487 59.8335 132.757 60.0136C133.044 60.1936 133.26 60.5538 133.116 60.8779C132.882 61.3821 132.559 61.7962 132.02 61.6341Z" fill="#818181"/>
<path d="M134.823 70.3492C134.877 70.6733 134.661 70.9074 134.409 71.1055C132.846 72.3119 131.265 73.5003 129.702 74.7247C129.127 75.1749 128.678 75.1209 128.157 74.6527C127.834 74.3646 127.6 74.0405 127.403 73.6804C126.828 72.69 126.971 72.1318 127.96 71.6096C129.559 70.7454 131.158 69.8811 132.774 69.0348C133.763 68.5306 134.787 69.1788 134.823 70.3492Z" fill="#818181"/>
<path d="M157.783 64.7131C159.311 65.1633 160.963 65.0913 162.526 65.5234C163.191 65.7035 163.91 65.5054 164.575 65.8475C165.257 66.1896 165.437 66.8198 165.042 67.7742C164.7 68.6025 164.395 68.7285 163.586 68.4584C161.556 67.8102 159.508 67.216 157.478 66.5858C157.119 66.4777 156.705 66.3877 156.652 65.8835C156.598 65.4514 156.759 65.1453 157.083 64.8752C157.298 64.7131 157.514 64.7491 157.783 64.7131Z" fill="#818181"/>
<path d="M155.628 77.0836C155.645 78.29 154.478 79.6045 153.166 79.9646C152.448 80.1626 151.747 80.1806 151.064 79.8385C150.902 79.7665 150.705 79.6765 150.687 79.4784C150.687 79.2803 150.866 79.1903 151.028 79.1003C152.555 78.398 153.813 77.3717 154.783 76.0032C155.017 75.6791 155.196 75.8052 155.304 76.0392C155.466 76.4174 155.538 76.7955 155.628 77.0836Z" fill="#818181"/>
</g>
</svg>
