<?xml version="1.0" encoding="UTF-8" standalone="no"?><svg width="281" height="167" viewBox="0 0 281 167" fill="none" xmlns="http://www.w3.org/2000/svg">
<g opacity="0.8">
<path d="M108.837 75.0235C108.418 74.9992 108 75.0881 107.626 75.2808C107.368 75.4335 107.155 75.6524 107.01 75.9147C106.875 76.18 106.795 76.4694 106.774 76.7661C106.745 77.0849 106.734 77.3892 106.734 77.679V79.6208H111.651L111.06 84.6165H106.615V100.216H99.5151V84.602H95.1893L95.309 79.6063H99.6311V76.1575C99.602 75.16 99.864 74.1757 100.385 73.3245C100.879 72.5562 101.536 71.9066 102.311 71.4225C103.112 70.9203 103.99 70.5532 104.91 70.3357C105.806 70.1208 106.723 70.009 107.644 70.0024C108.228 70.0024 108.768 70.0024 109.272 70.0387C109.777 70.0749 110.212 70.1075 110.581 70.1582C111.031 70.2126 111.441 70.2669 111.811 70.3176L111.256 75.2337C111.046 75.2047 110.806 75.1684 110.531 75.1141C110.32 75.0887 110.063 75.0598 109.758 75.0344C109.454 75.009 109.153 75.0235 108.837 75.0235Z" fill="#8F8F8F"/>
<path d="M124.385 95.039C124.491 95.039 124.704 95.039 125.02 95.0789C125.312 95.1085 125.606 95.0951 125.894 95.039V100.39C125.528 100.47 125.157 100.529 124.784 100.567L123.791 100.669C123.448 100.694 123.104 100.694 122.761 100.669C121.812 100.671 120.863 100.599 119.925 100.451C119.08 100.323 118.278 99.9936 117.587 99.4913C116.864 98.9252 116.309 98.174 115.98 97.3177C115.536 96.0729 115.334 94.7547 115.386 93.4341V70.5095H122.525V93.2602C122.519 93.7745 122.711 94.2714 123.062 94.6477C123.441 94.9337 123.911 95.0727 124.385 95.039Z" fill="#8F8F8F"/>
<path d="M141.406 79.1063C142.729 79.1234 144.046 79.2899 145.332 79.6026C146.759 79.9304 148.112 80.5214 149.321 81.3451C150.585 82.2157 151.635 83.3615 152.392 84.6961C153.212 86.0945 153.623 87.8648 153.625 90.007C153.627 92.1493 153.218 93.9063 152.396 95.2781C151.641 96.5894 150.589 97.706 149.325 98.5386C148.105 99.327 146.754 99.8914 145.336 100.205C144.048 100.504 142.731 100.663 141.409 100.68C140.102 100.661 138.801 100.498 137.529 100.194C136.136 99.8799 134.812 99.3153 133.621 98.5277C132.373 97.6864 131.335 96.5711 130.586 95.2672C129.766 93.893 129.357 92.136 129.357 89.9962C129.333 88.7167 129.528 87.4426 129.933 86.2285C130.281 85.2105 130.789 84.2542 131.438 83.3956C132.047 82.6018 132.782 81.9128 133.613 81.356C134.418 80.8138 135.283 80.3676 136.191 80.0264C137.059 79.6977 137.956 79.455 138.871 79.3019C139.709 79.1694 140.557 79.104 141.406 79.1063ZM141.406 95.7128C142.856 95.7128 144.007 95.2902 144.857 94.4449C145.708 93.5996 146.131 92.1203 146.127 90.007C146.127 87.8672 145.71 86.3408 144.876 85.4279C144.045 84.515 142.885 84.0621 141.406 84.0621C139.926 84.0621 138.795 84.515 138.012 85.4279C137.229 86.3408 136.844 87.866 136.844 90.007C136.844 92.1481 137.232 93.6008 138.012 94.4449C138.791 95.289 139.923 95.7128 141.406 95.7128Z" fill="#8F8F8F"/>
<path d="M168.063 79.1062C169.382 79.1244 170.695 79.2909 171.976 79.6025C173.402 79.9311 174.755 80.522 175.964 81.345C177.229 82.2168 178.28 83.3622 179.039 84.6961C179.859 86.0944 180.268 87.8647 180.268 90.007C180.268 92.1492 179.859 93.9062 179.039 95.2781C178.282 96.5888 177.229 97.7051 175.964 98.5385C174.745 99.3264 173.394 99.8907 171.976 100.205C170.688 100.504 169.371 100.663 168.049 100.68C166.74 100.665 165.436 100.506 164.162 100.205C162.769 99.8907 161.444 99.3261 160.253 98.5385C159.006 97.6972 157.968 96.5819 157.218 95.2781C156.421 93.9038 156.022 92.1468 156.022 90.007C155.998 88.7275 156.193 87.4534 156.598 86.2394C156.946 85.2213 157.454 84.265 158.103 83.4064C158.712 82.6126 159.447 81.9236 160.279 81.3668C161.083 80.8247 161.948 80.3784 162.857 80.0372C163.724 79.7085 164.621 79.4658 165.536 79.3127C166.372 79.177 167.217 79.1079 168.063 79.1062ZM168.063 95.7128C169.514 95.7128 170.664 95.2901 171.515 94.4448C172.366 93.5995 172.789 92.1202 172.784 90.007C172.784 87.8672 172.367 86.3408 171.533 85.4279C170.703 84.5149 169.543 84.0621 168.063 84.0621C166.584 84.0621 165.453 84.5149 164.673 85.4279C163.894 86.3408 163.502 87.866 163.502 90.007C163.502 92.148 163.89 93.6007 164.673 94.4448C165.456 95.2889 166.58 95.7128 168.063 95.7128Z" fill="#8F8F8F"/>
<path d="M211.622 79.1062C213.447 79.1062 214.855 79.4032 215.846 79.9974C216.774 80.5168 217.529 81.2947 218.022 82.2362C218.475 83.1531 218.744 84.1502 218.812 85.1706C218.892 86.2285 218.932 87.2319 218.932 88.1811V100.216H211.901V100.18L211.861 89.6085C211.91 88.4686 211.634 87.3382 211.067 86.348C210.81 85.9346 210.446 85.5984 210.013 85.3752C209.58 85.1519 209.095 85.05 208.609 85.08C207.891 85.0428 207.181 85.2372 206.582 85.6343C206.085 85.9988 205.69 86.4839 205.432 87.0436C205.165 87.6251 204.997 88.2471 204.936 88.8839C204.87 89.5469 204.838 90.1664 204.838 90.7496V100.216H197.778V100.18H197.738V89.5686C197.787 88.4287 197.511 87.2983 196.944 86.3081C196.687 85.8947 196.323 85.5586 195.89 85.3353C195.457 85.1121 194.972 85.0101 194.486 85.0402C193.775 85.0014 193.071 85.1961 192.481 85.5945C191.999 85.9592 191.624 86.4457 191.393 87.0037C191.152 87.5918 190.998 88.2117 190.936 88.8441C190.871 89.507 190.838 90.1265 190.838 90.7098V100.216H183.659V79.6206H189.526L190.251 83.3882C190.636 82.604 191.145 81.8872 191.759 81.2653C192.432 80.6474 193.202 80.1454 194.04 79.78C195.2 79.293 196.452 79.0631 197.709 79.1062C198.819 79.0655 199.922 79.2969 200.922 79.78C201.666 80.1575 202.348 80.6461 202.945 81.2291C203.363 81.6341 203.723 82.095 204.015 82.5985C204.229 82.9934 204.334 83.1528 204.334 83.0731C204.334 82.9934 204.533 82.7434 204.769 82.3195C205.082 81.8089 205.478 81.3535 205.94 80.9719C206.599 80.4264 207.342 79.992 208.141 79.6858C209.253 79.2688 210.435 79.0719 211.622 79.1062Z" fill="#8F8F8F"/>
<path d="M233.164 95.039C233.269 95.039 233.479 95.039 233.798 95.0789C234.09 95.1085 234.384 95.0951 234.672 95.039V100.39C234.305 100.47 233.933 100.529 233.559 100.567L232.569 100.669C232.225 100.694 231.88 100.694 231.536 100.669C230.586 100.671 229.638 100.599 228.7 100.451C227.856 100.322 227.056 99.9925 226.365 99.4913C225.644 98.924 225.089 98.1732 224.759 97.3177C224.315 96.0729 224.113 94.7547 224.164 93.4341V70.5095H231.307V93.2602C231.28 93.5078 231.311 93.7583 231.396 93.9922C231.482 94.2262 231.62 94.4374 231.8 94.6096C231.98 94.7818 232.197 94.9104 232.435 94.9855C232.673 95.0606 232.924 95.0801 233.171 95.0426L233.164 95.039Z" fill="#8F8F8F"/>
<path d="M239.908 100.216V79.6207H247.033V100.216H239.908ZM247.008 73.4078C247.012 73.8917 246.917 74.3714 246.728 74.817C246.38 75.6653 245.71 76.3413 244.865 76.6972C244.44 76.885 243.98 76.9801 243.516 76.9762C243.045 76.983 242.578 76.8954 242.141 76.7184C241.705 76.5415 241.309 76.2788 240.976 75.946C240.644 75.6132 240.381 75.2171 240.204 74.7811C240.028 74.3451 239.94 73.8781 239.948 73.4078C239.946 72.9535 240.036 72.5034 240.213 72.0849C240.39 71.6665 240.65 71.2883 240.978 70.9733C241.308 70.6656 241.691 70.4201 242.109 70.2487C242.554 70.0628 243.033 69.9691 243.516 69.9734C243.973 69.9676 244.427 70.0542 244.85 70.2279C245.273 70.4016 245.657 70.6588 245.978 70.9842C246.311 71.299 246.574 71.6797 246.752 72.102C246.929 72.5243 247.016 72.9789 247.008 73.4367V73.4078Z" fill="#8F8F8F"/>
<path d="M68.1494 121.457C66.0618 121.457 63.8501 120.624 61.8606 118.643L54.079 110.866C53.8484 110.669 53.6611 110.426 53.5288 110.153C53.3966 109.88 53.3223 109.583 53.3105 109.28C53.2988 108.977 53.3499 108.674 53.4606 108.392C53.5713 108.11 53.7392 107.853 53.9539 107.639C54.1685 107.424 54.4252 107.257 54.7078 107.146C54.9905 107.035 55.2929 106.984 55.5962 106.996C55.8996 107.008 56.1972 107.082 56.4704 107.214C56.7436 107.346 56.9866 107.533 57.184 107.764L64.9727 115.531C66.2649 116.82 67.6836 117.304 69.0832 116.93C69.7373 116.748 70.3332 116.401 70.8132 115.921C71.2932 115.441 71.641 114.846 71.8228 114.193C72.1954 112.797 71.7129 111.377 70.4232 110.088L67.3182 106.986L67.2847 106.95L67.2322 106.9L64.1965 103.874C58.6672 98.352 58.6672 93.8514 64.1965 88.3222L76.6499 75.8798C78.6705 73.861 78.9595 71.9686 78.2048 71.2145C77.45 70.4604 75.5584 70.7373 73.5353 72.7704L61.0819 85.2104C58.4546 87.8354 55.4046 88.9379 52.7223 88.222C51.7612 87.9687 50.8848 87.4642 50.1834 86.7604C49.482 86.0567 48.9808 85.1791 48.7312 84.2177C48.0147 81.545 49.111 78.5024 51.743 75.8655L70.4232 57.2019C71.5099 56.1161 72.1882 54.9707 72.3339 53.9756C72.4223 53.3623 72.2981 52.8516 71.9828 52.5438C71.6676 52.236 71.1612 52.1071 70.5498 52.1954C69.5562 52.3362 68.4002 53.0139 67.3206 54.1045L41.6494 79.7338C38.8669 82.5067 36.8558 84.5065 36.8534 85.9025C36.8534 86.9334 37.9043 88.4845 40.0683 90.6489L46.295 96.8677C46.6556 97.2886 46.844 97.83 46.8226 98.3837C46.8011 98.9373 46.5714 99.4625 46.1792 99.8543C45.7871 100.246 45.2614 100.476 44.7073 100.497C44.1531 100.519 43.6113 100.33 43.19 99.97L36.9561 93.7583C33.7532 90.5606 32.4491 88.2697 32.4515 85.9001C32.4515 82.6809 34.8758 80.2683 38.542 76.6172L39.2896 75.8727L64.1965 50.9879C67.2895 47.8976 72.0258 46.3632 75.0926 49.4344C78.1594 52.5056 76.6308 57.2282 73.5353 60.3209L54.8552 78.9845C53.1284 80.7098 52.7558 82.2323 52.9827 83.0794C53.0338 83.2945 53.1437 83.4912 53.3001 83.6476C53.4566 83.8039 53.6535 83.9137 53.8688 83.9648C54.7191 84.2034 56.2405 83.8192 57.9698 82.0939L70.4232 69.6515C73.5162 66.5492 78.2525 65.0339 81.3193 68.0956C84.3861 71.1573 82.8551 75.8918 79.7621 78.9845L67.3086 91.4245C63.5134 95.2188 63.5134 96.9632 67.3086 100.757L70.4136 103.86L70.4447 103.891L70.4972 103.941L73.5353 106.976C77.6244 111.059 76.8266 116.13 73.9247 119.027C72.3966 120.568 70.3202 121.441 68.1494 121.457Z" fill="#CECECE"/>
<path d="M57.9817 97.8654C57.9817 99.5621 55.9993 103.034 54.5901 105.285C54.4445 105.518 54.2417 105.711 54.0008 105.845C53.7598 105.979 53.4888 106.049 53.2132 106.049C52.9376 106.049 52.6665 105.979 52.4256 105.845C52.1847 105.711 51.9818 105.518 51.8362 105.285C50.427 103.034 48.4422 99.5573 48.4422 97.8654C48.5091 96.6466 49.0408 95.4998 49.928 94.6607C50.8151 93.8216 51.9903 93.354 53.212 93.354C54.4336 93.354 55.6088 93.8216 56.496 94.6607C57.3832 95.4998 57.9149 96.6466 57.9817 97.8654Z" fill="#8F8F8F"/>
</g>
</svg>
