<?xml version="1.0" encoding="UTF-8" standalone="no"?><svg width="281" height="167" viewBox="0 0 281 167" fill="none" xmlns="http://www.w3.org/2000/svg">
<g opacity="0.8">
<path d="M79.2949 56.7935C79.2949 54.2643 78.1983 51.0761 75.3425 51.0761C71.9423 51.0761 70.6248 54.4852 70.6248 63.0595C70.6248 71.3062 71.3939 76.4714 75.3425 76.4714C76.9913 76.4714 79.6224 74.7116 79.6224 70.9748V67.4552H75.1255V62.4005H86.3163V80.8709H81.2711V77.6827H81.1607C79.512 80.3186 77.2083 81.5299 74.0289 81.5299C65.5796 81.5299 63.8204 75.1534 63.8204 63.3871C63.8204 51.8455 66.4554 46.0176 75.3425 46.0176C82.916 46.0176 85.9888 49.8648 85.9888 56.904H79.2949V56.7935Z" fill="#888888"/>
<path d="M98.0592 61.6311H100.911C104.205 61.6311 106.071 60.1988 106.071 56.4621C106.071 53.2739 104.422 51.735 101.242 51.735H97.9488V61.6311H98.0592ZM91.2549 46.6765H103.984C109.581 46.6765 113.092 49.6476 113.092 55.4717C113.092 59.9817 111.226 63.0595 107.384 63.9394V64.0498C112.106 64.7088 112.761 67.2381 112.871 74.4944C112.871 78.1207 113.092 79.9909 114.409 80.6499V80.9775H106.946C106.288 79.9909 106.177 78.6692 106.071 77.3512L105.85 70.7539C105.739 68.118 104.532 66.4686 101.791 66.4686H98.0592V80.9775H91.2549V46.6765Z" fill="#888888"/>
<path d="M129.111 76.4714C133.174 76.4714 133.833 72.9518 133.833 63.7185C133.833 54.5919 133.174 50.9656 129.111 50.9656C125.052 50.9656 124.393 54.4852 124.393 63.7185C124.393 72.9518 125.052 76.4714 129.111 76.4714ZM129.111 46.0176C139.426 46.0176 140.743 53.3844 140.743 63.829C140.743 74.2735 139.426 81.6403 129.111 81.6403C118.796 81.6403 117.482 74.2735 117.482 63.829C117.482 53.3844 118.796 46.0176 129.111 46.0176Z" fill="#888888"/>
<path d="M151.828 46.6765V70.5329C151.828 73.9421 152.593 76.4713 155.887 76.4713C159.07 76.4713 159.946 73.9421 159.946 70.5329V46.6765H166.86V70.5329C166.86 79.2215 161.594 81.5298 155.997 81.5298C150.4 81.5298 145.134 79.6595 145.134 70.5329V46.6765H151.828Z" fill="#888888"/>
<path d="M179.148 62.1796H182.221C184.966 62.1796 186.832 60.5302 186.832 57.0106C186.832 53.6053 185.514 51.735 182.004 51.735H179.148V62.1796ZM172.237 46.6765H184.307C191.329 46.6765 193.743 51.8455 193.743 56.904C193.743 64.0498 189.356 67.2381 182.879 67.2381H179.148V80.8708H172.237V46.6765Z" fill="#888888"/>
<path d="M215.801 46.6766V52.2836H203.62V60.3094H215.142V65.9164H203.62V75.1535H216.349V80.7605H196.816V46.5662H215.801V46.6766Z" fill="#888888"/>
<path d="M71.8318 104.727H74.3563C77.3187 104.727 78.9636 103.406 78.9636 100.217C78.9636 97.4711 77.5396 96.0427 74.6838 96.0427H71.8318V104.727ZM65.7966 91.5327H76.9913C81.926 91.5327 84.9988 94.1724 84.9988 99.3414C84.9988 103.406 83.3539 106.045 79.9536 106.815V106.925C84.1231 107.474 84.7818 109.782 84.7818 116.162C84.7818 119.351 84.9988 120.996 86.0993 121.548V121.769H79.512C78.9636 120.889 78.7466 119.789 78.7466 118.581L78.5258 112.753C78.4153 110.334 77.4291 108.906 74.9046 108.906H71.6148V121.659H65.5796V91.5327H65.7966Z" fill="#747474"/>
<path d="M106.726 91.5326V96.4806H95.9727V103.626H106.071V108.575H95.9727V116.711H107.167V121.659H89.827V91.4221H106.726V91.5326Z" fill="#747474"/>
<path d="M117.81 91.5326L125.162 112.201H125.273V91.5326H130.866V121.769H123.955L116.492 100.549H116.382V121.659H110.788V91.4221H117.81V91.5326Z" fill="#747474"/>
<path d="M142.171 110.334H148.096L145.134 96.7017H145.023L142.171 110.334ZM141.292 91.5327H148.865L156.873 121.769H150.51L149.082 115.389H141.075L139.647 121.769H133.28L141.292 91.5327Z" fill="#747474"/>
<path d="M164.557 91.5327V112.643C164.557 115.61 165.322 117.918 168.068 117.918C170.92 117.918 171.578 115.721 171.578 112.643V91.5327H177.613V112.643C177.613 120.337 172.896 122.428 167.957 122.428C163.019 122.428 158.301 120.779 158.301 112.643V91.5327H164.557Z" fill="#747474"/>
<path d="M182.769 121.769V91.5327H188.808V116.711H199.561V121.659H182.769V121.769Z" fill="#747474"/>
<path d="M216.239 91.5327V96.4807H209.655V121.659H203.62V96.4807H197.036V91.5327H216.239Z" fill="#747474"/>
</g>
</svg>
