<?xml version="1.0" encoding="UTF-8" standalone="no"?><svg width="281" height="167" viewBox="0 0 281 167" fill="none" xmlns="http://www.w3.org/2000/svg">
<g opacity="0.8">
<path d="M77.1956 90.0745C70.7991 90.0745 65.5955 95.2768 65.5955 101.672H65.5783V122.447H70.7304V111.298C72.5784 112.542 74.804 113.269 77.1927 113.269C83.5892 113.269 88.7928 108.067 88.7928 101.672C88.7957 95.2768 83.5921 90.0745 77.1956 90.0745ZM77.1956 108.115C73.6426 108.115 70.7504 105.224 70.7504 101.672C70.7504 98.1196 73.6426 95.2282 77.1956 95.2282C80.7486 95.2282 83.6407 98.1196 83.6407 101.672C83.6407 105.224 80.7486 108.115 77.1956 108.115Z" fill="#888888"/>
<path d="M104.072 90.0745C97.6752 90.0745 92.4716 95.2768 92.4716 101.672C92.4716 108.067 97.6752 113.269 104.072 113.269C106.455 113.269 108.672 112.545 110.517 111.307V112.654H115.672V101.669C115.669 95.2768 110.468 90.0745 104.072 90.0745ZM104.072 108.115C100.519 108.115 97.6266 105.224 97.6266 101.672C97.6266 98.1196 100.519 95.2282 104.072 95.2282C107.625 95.2282 110.517 98.1196 110.517 101.672C110.517 105.224 107.625 108.115 104.072 108.115Z" fill="#888888"/>
<path d="M205.804 95.2853V90.1317H199.47V86.3079H194.315V90.1317H189.921V95.2853H194.315V104.615C194.315 109.068 197.94 112.694 202.394 112.694H204.971V107.54H202.394C200.78 107.54 199.47 106.228 199.47 104.615V95.2853H205.804Z" fill="#888888"/>
<path d="M127.844 86.3079H122.689V90.1317H118.295V95.2853H122.689V104.615C122.689 109.07 126.314 112.694 130.768 112.694H133.345V107.54H130.768C129.154 107.54 127.844 106.228 127.844 104.615V95.2853H134.178V90.1317H127.844V86.3079Z" fill="#888888"/>
<path d="M175.698 90.1316C173.315 90.1316 171.098 90.8552 169.253 92.0907V90.3032H164.098V112.657H169.253V101.726C169.253 98.1739 172.145 95.2853 175.698 95.2853C179.251 95.2853 182.143 98.1767 182.143 101.729V112.657H187.298V101.729C187.298 95.3339 182.094 90.1316 175.698 90.1316Z" fill="#888888"/>
<path d="M148.473 90.0745C142.076 90.0745 136.872 95.2768 136.872 101.672C136.872 108.067 142.076 113.269 148.473 113.269C154.077 113.269 156.975 110.858 157.286 110.583L153.879 106.717C153.865 106.731 152.066 108.115 148.473 108.115C145.835 108.115 143.564 106.522 142.568 104.246H159.775C159.892 103.722 159.975 103.19 160.024 102.65C160.053 102.327 160.073 102.001 160.073 101.672C160.073 101.36 160.053 101.051 160.024 100.745C159.552 94.7849 154.557 90.0745 148.473 90.0745ZM142.396 99.5467C143.278 97.0357 145.666 95.231 148.473 95.231C151.279 95.231 153.665 97.0385 154.546 99.5467H142.396Z" fill="#888888"/>
<path d="M155.776 55.9577C153.931 54.7193 151.714 53.9957 149.331 53.9957C142.934 53.9957 137.731 59.198 137.731 65.593C137.731 71.9879 142.934 77.1902 149.331 77.1902C155.727 77.1902 160.931 71.9879 160.931 65.593V42.4814H155.776V55.9577ZM149.331 72.0365C145.778 72.0365 142.886 69.1479 142.886 65.593C142.886 62.038 145.775 59.1494 149.331 59.1494C152.884 59.1494 155.776 62.038 155.776 65.593C155.776 69.1479 152.884 72.0365 149.331 72.0365Z" fill="#888888"/>
<path d="M101.669 64.9838V76.5782H106.824V64.9838C106.824 58.7519 101.838 54.053 95.2236 54.053C91.582 54.053 88.3294 55.7404 86.201 58.3716C84.0727 55.7404 80.8201 54.053 77.1784 54.053C74.7955 54.053 72.5784 54.7766 70.7333 56.0149V54.2274H65.5783V76.581H70.7333V65.6531C70.7333 62.101 73.6254 59.2095 77.1784 59.2095C80.7314 59.2095 83.6235 62.0981 83.6235 65.6531V76.581H88.7785V65.6531C88.7785 62.101 91.6707 59.2095 95.2236 59.2095C98.4248 59.2095 101.669 61.1915 101.669 64.9838Z" fill="#888888"/>
<path d="M110.854 66.2536C111.198 72.3425 116.258 77.193 122.435 77.193C128.036 77.193 130.936 74.782 131.248 74.5075L127.841 70.6408C127.827 70.6551 126.028 72.0393 122.435 72.0393C119.797 72.0393 117.526 70.4463 116.53 68.1697H133.737C133.926 67.3318 134.035 66.4738 134.035 65.5958C134.035 65.284 134.015 64.9751 133.989 64.6691C133.514 58.7061 128.519 53.9985 122.437 53.9985C116.436 53.9985 111.492 58.5802 110.903 64.4289C110.903 64.4317 110.903 64.4346 110.903 64.4375C110.889 64.5919 110.874 64.7463 110.863 64.9036C110.852 65.0724 110.846 65.2411 110.843 65.4127C110.843 65.4728 110.837 65.5357 110.837 65.5986V65.6015C110.834 65.8188 110.843 66.0362 110.854 66.2536ZM122.435 59.1522C125.241 59.1522 127.627 60.9597 128.508 63.4679H116.358C117.24 60.9597 119.628 59.1522 122.435 59.1522Z" fill="#888888"/>
<path d="M215.903 81.6716C213.218 81.6716 211.04 83.8468 211.04 86.5301C211.04 89.2161 213.218 91.3913 215.903 91.3913C218.588 91.3913 220.766 89.2161 220.766 86.5301C220.766 83.8468 218.588 81.6716 215.903 81.6716ZM215.903 90.7191C213.59 90.7191 211.713 88.8451 211.713 86.5301C211.713 84.2178 213.59 82.3438 215.903 82.3438C218.217 82.3438 220.093 84.2178 220.093 86.5301C220.093 88.8451 218.217 90.7191 215.903 90.7191Z" fill="#888888"/>
<path d="M217.793 88.4363C217.793 88.4631 217.788 88.4862 217.778 88.5057C217.768 88.5228 217.745 88.5374 217.709 88.5496C217.672 88.5617 217.619 88.5703 217.548 88.5751C217.477 88.58 217.381 88.5824 217.259 88.5824C217.157 88.5824 217.075 88.58 217.014 88.5751C216.953 88.5703 216.904 88.5617 216.868 88.5496C216.833 88.5349 216.809 88.5179 216.794 88.4984C216.78 88.4765 216.768 88.4509 216.758 88.4217L216.334 87.3655C216.283 87.2462 216.233 87.1402 216.184 87.0476C216.135 86.955 216.08 86.8783 216.019 86.8174C215.961 86.754 215.892 86.7065 215.814 86.6749C215.736 86.6432 215.646 86.6274 215.544 86.6274H215.244V88.429C215.244 88.4533 215.235 88.4752 215.218 88.4947C215.204 88.5142 215.178 88.5301 215.142 88.5422C215.105 88.5544 215.056 88.5642 214.995 88.5715C214.934 88.5788 214.856 88.5824 214.761 88.5824C214.669 88.5824 214.591 88.5788 214.527 88.5715C214.466 88.5642 214.418 88.5544 214.381 88.5422C214.344 88.5301 214.319 88.5142 214.304 88.4947C214.29 88.4752 214.282 88.4533 214.282 88.429V84.1351C214.282 84.0279 214.309 83.9512 214.363 83.9049C214.419 83.8561 214.487 83.8318 214.567 83.8318H215.793C215.917 83.8318 216.019 83.8342 216.1 83.8391C216.18 83.844 216.253 83.8501 216.319 83.8574C216.509 83.8842 216.68 83.9305 216.831 83.9962C216.985 84.062 217.114 84.1485 217.219 84.2557C217.326 84.3604 217.408 84.4859 217.464 84.6321C217.52 84.7758 217.548 84.9415 217.548 85.1291C217.548 85.2874 217.527 85.4324 217.486 85.5639C217.447 85.6931 217.388 85.8088 217.31 85.9111C217.232 86.0134 217.136 86.1024 217.021 86.1779C216.907 86.2534 216.776 86.3143 216.63 86.3606C216.701 86.3947 216.766 86.4361 216.827 86.4848C216.891 86.5336 216.949 86.5933 217.003 86.6639C217.059 86.7321 217.111 86.8113 217.16 86.9014C217.209 86.9891 217.256 87.089 217.303 87.2011L217.701 88.133C217.738 88.2255 217.762 88.2937 217.775 88.3376C217.787 88.379 217.793 88.4119 217.793 88.4363ZM216.553 85.2277C216.553 85.0718 216.518 84.9403 216.447 84.8331C216.376 84.7259 216.261 84.6504 216.1 84.6065C216.051 84.5943 215.995 84.5846 215.931 84.5773C215.871 84.57 215.785 84.5663 215.675 84.5663H215.244V85.9075H215.734C215.871 85.9075 215.99 85.8916 216.092 85.86C216.195 85.8258 216.28 85.7796 216.348 85.7211C216.417 85.6602 216.468 85.5883 216.502 85.5055C216.536 85.4226 216.553 85.3301 216.553 85.2277Z" fill="#888888"/>
</g>
</svg>
