<?xml version="1.0" encoding="UTF-8" standalone="no"?><svg width="281" height="167" viewBox="0 0 281 167" fill="none" xmlns="http://www.w3.org/2000/svg">
<g opacity="0.8">
<path d="M190.509 94.6298V79.5456H187.426L183.803 86.8184L180.18 79.5456H177.097V94.6298H180.257V84.9329H180.335L183.418 91.1955L183.726 91.8015L184.034 91.1955L187.118 84.9329H187.195V94.6298H190.509ZM213.48 94.5625V81.9026H217.257V79.4783H206.542V81.9026H210.319V94.5625H213.48ZM251.558 92.4749C249.554 92.4749 248.937 91.1955 248.783 89.8487H245.7C245.7 92.677 247.781 94.7645 251.481 94.7645C255.027 94.7645 257.262 92.9463 257.262 90.1854C257.262 84.4615 249.091 86.549 249.091 83.384C249.091 82.3066 249.862 81.4312 251.327 81.4312C252.946 81.4312 253.716 82.4413 253.871 83.5861H256.877C256.646 81.0271 254.95 79.1416 251.404 79.1416C248.321 79.1416 245.931 80.7578 245.931 83.2494C245.931 89.108 254.102 86.8184 254.102 90.3201C254.256 91.5995 253.1 92.4749 251.558 92.4749ZM199.374 94.8319C202.303 94.8319 206.157 92.9463 206.157 87.0204C206.157 81.2965 202.611 79.1416 199.374 79.1416C196.059 79.1416 192.591 81.6332 192.591 86.8184C192.591 92.5423 196.059 94.8319 199.374 94.8319ZM199.297 81.5659C200.992 81.5659 202.842 83.0473 202.842 86.9531C202.842 91.0608 200.838 92.3403 199.297 92.3403C197.524 92.3403 195.751 90.7241 195.751 86.8184C195.751 83.3167 197.524 81.5659 199.297 81.5659ZM224.348 94.8319C227.277 94.8319 231.131 92.9463 231.131 87.0204C231.131 81.2965 227.586 79.1416 224.348 79.1416C221.034 79.1416 217.565 81.6332 217.565 86.8184C217.565 92.5423 221.034 94.8319 224.348 94.8319ZM224.271 81.5659C225.967 81.5659 227.817 83.0473 227.817 86.9531C227.817 91.0608 225.813 92.3403 224.271 92.3403C222.498 92.3403 220.725 90.7241 220.725 86.8184C220.725 83.3167 222.498 81.5659 224.271 81.5659ZM236.99 86.6164L242 94.5625H245.7L241.152 88.0305C242.617 87.4918 243.927 86.751 244.004 84.1921C244.081 81.3638 242.771 79.5456 238.84 79.5456H232.904V94.5625H235.911V81.9026H237.915C239.842 81.9026 240.767 82.6433 240.767 84.2595C240.767 86.8184 236.99 86.6164 236.99 86.6164Z" fill="#888888"/>
<path d="M68.8334 94.5613V79.4121H65.6779L61.9701 86.7162L58.2623 79.4121H55.1068V94.5613H58.3412V84.8225H58.4201L61.5756 91.1122L61.8912 91.7209L62.2068 91.1122L65.3623 84.8225H65.4412V94.5613H68.8334ZM75.6178 79.4121H72.3834V94.5613H75.6178V79.4121ZM88.0033 79.4121H77.5111V81.8468H81.14V94.5613H84.3744V81.8468H88.0033V79.4121ZM114.51 90.5035V79.4121H111.512V89.8272C111.512 91.5856 110.802 92.3972 108.751 92.3972C106.7 92.3972 105.99 91.5856 105.99 89.8272V79.4121H102.992V90.5035C102.992 92.7353 104.807 94.8319 108.751 94.8319C112.695 94.8319 114.51 92.8029 114.51 90.5035ZM129.025 90.1654C129.025 88.3393 128 86.8515 125.633 86.4457V86.3781C127.211 86.2428 128.236 84.7549 128.236 83.6052C128.236 80.9 126.659 79.5474 124.371 79.4121H117.271V94.5613H123.819C126.816 94.5613 129.025 92.8029 129.025 90.1654ZM122.32 92.2619H120.584V81.7116H122.399C124.055 81.7116 125.081 82.3879 125.081 83.6052C125.081 84.8226 124.371 85.4989 122.004 85.4989V87.7983C124.765 87.7983 125.87 88.1364 125.87 90.0301C125.791 91.8561 124.923 92.2619 122.32 92.2619ZM148.984 90.233C148.984 84.4844 140.622 86.581 140.622 83.4023C140.622 82.3202 141.411 81.441 142.91 81.441C144.566 81.441 145.355 82.4555 145.513 83.6052H148.59C148.353 81.0353 146.617 79.1416 142.989 79.1416C139.833 79.1416 137.387 80.7647 137.387 83.2671C137.387 89.1509 145.75 86.8515 145.75 90.3682C145.75 91.5856 144.645 92.5324 143.067 92.5324C141.016 92.5324 140.385 91.2474 140.227 89.8948H137.072C137.072 92.7353 139.202 94.8319 142.989 94.8319C146.617 94.8319 148.984 93.0058 148.984 90.233ZM95.1033 92.5324C93.0522 92.5324 92.421 91.2474 92.2633 89.8948H89.1077C89.1077 92.7353 91.2377 94.8319 95.0244 94.8319C98.6532 94.8319 100.941 93.0058 100.941 90.233C100.941 84.4844 92.5788 86.581 92.5788 83.4023C92.5788 82.3202 93.3677 81.441 94.8666 81.441C96.5233 81.441 97.3121 82.4555 97.4699 83.6052H100.547C100.31 81.0353 98.5744 79.1416 94.9455 79.1416C91.79 79.1416 89.3444 80.7647 89.3444 83.2671C89.3444 89.1509 97.7066 86.8515 97.7066 90.3682C97.8644 91.5856 96.681 92.5324 95.1033 92.5324ZM163.657 94.5613V79.4121H160.423V85.4989H154.112V79.4121H150.799V94.5613H154.033V87.7983H160.344V94.5613H163.657ZM170.126 79.4121H166.892V94.5613H170.126V79.4121ZM131.313 94.5613H134.547V79.4121H131.313V94.5613Z" fill="#888888"/>
<path d="M35.9369 87.1469L40.4315 94.8319H49.8786L45.3501 87.1313L35.9369 87.1469L40.9064 79.6967L36.1913 72.1682L31.2388 79.728L35.9369 87.1469L26.5237 87.1313L21.9952 94.8319H31.4423L35.9369 87.1469Z" fill="#888888"/>
</g>
</svg>
