<?xml version="1.0" encoding="UTF-8" standalone="no"?><svg width="281" height="168" viewBox="0 0 281 168" fill="none" xmlns="http://www.w3.org/2000/svg">
<g opacity="0.8">
<path d="M191.977 97.748H233.865V98.1442H191.977V97.748ZM47.0684 97.748H92.1526V98.1442H47.0684V97.748Z" fill="#888888"/>
<path d="M104.872 97.748C106.137 98.012 106.737 98.4742 106.737 99.3984C106.737 100.389 105.938 101.049 104.805 101.049C103.873 101.049 103.141 100.719 102.475 100.125L102.874 99.6625C103.474 100.191 104.073 100.455 104.872 100.455C105.671 100.455 106.137 100.059 106.137 99.4645C106.137 98.9363 105.871 98.6062 104.672 98.3421C103.34 98.0781 102.741 97.6159 102.741 96.6916C102.741 95.7674 103.54 95.1072 104.606 95.1072C105.471 95.1072 106.071 95.3713 106.604 95.8334L106.204 96.3615C105.671 95.8994 105.138 95.7674 104.539 95.7674C103.807 95.7674 103.34 96.1635 103.34 96.6916C103.34 97.1538 103.607 97.4839 104.872 97.748ZM118.79 95.1732H119.323L120.921 99.9266L122.586 95.1732H123.252L121.188 100.917H120.655L119.057 96.2955L117.458 100.917H116.926L114.861 95.1732H115.594L117.259 99.9266L118.79 95.1732ZM136.105 95.7674H132.575V97.748H135.705V98.3421H132.575V100.323H136.105V100.917H131.909V95.2392H136.038V95.7674H136.105ZM148.292 100.851H146.294V95.1732H148.292C150.09 95.1732 151.355 96.4276 151.355 98.012C151.355 99.6625 150.09 100.851 148.292 100.851ZM148.292 95.7674H146.96V100.257H148.292C149.757 100.257 150.689 99.2664 150.689 98.012C150.689 96.7577 149.757 95.7674 148.292 95.7674ZM165.473 95.7674H161.943V97.748H165.073V98.3421H161.943V100.323H165.473V100.917H161.277V95.2392H165.406V95.7674H165.473ZM180.323 95.1732H180.923V100.851H180.39L176.661 96.1635V100.851H175.995V95.1732H176.594L180.19 99.7285V95.1732H180.323Z" fill="#888888"/>
<path d="M106.137 88.0431H103.141V68.3693H106.137V88.0431ZM120.455 88.0431H117.458V68.3693H131.976V71.1421H120.455V77.0839H130.777V79.8567H120.455V88.0431ZM155.084 88.0431H141.366V68.3693H144.362V85.2703H155.084V88.0431ZM198.437 82.8936L192.111 73.5189V88.1091H190.645H189.18V68.3693H191.977L198.703 78.3383L205.429 68.3693H208.226V88.0431H206.761H205.296V73.4528L198.97 82.8276L198.703 83.2237L198.437 82.8936ZM233.932 88.0431H219.214V68.3693H233.798V71.1421H222.144V76.7538H232.533V79.5266H222.144V85.3363H233.932V88.0431ZM93.8841 88.0431H90.0882L84.6941 80.715H79.8327V88.0431H76.836V68.3693H85.4266C89.8884 68.3693 92.752 70.746 92.752 74.4431C92.752 77.348 90.8873 79.4606 87.824 80.2528L93.8841 88.0431ZM79.8327 77.9422H85.2934C88.0238 77.9422 89.7553 76.5557 89.7553 74.4431C89.7553 72.3305 88.157 71.0761 85.2934 71.0761H79.8327V77.9422ZM93.8841 88.0431H90.0882L84.6941 80.715H79.8327V88.0431H76.836V68.3693H85.4266C89.8884 68.3693 92.752 70.746 92.752 74.4431C92.752 77.348 90.8873 79.4606 87.824 80.2528L93.8841 88.0431ZM79.8993 78.0082H85.36C88.0904 78.0082 89.8218 76.6218 89.8218 74.5091C89.8218 72.3965 88.2236 71.1421 85.36 71.1421H79.8993V78.0082ZM93.8841 88.0431H90.0882L84.6941 80.715H79.8327V88.0431H76.836V68.3693H85.4266C89.8884 68.3693 92.752 70.746 92.752 74.4431C92.752 77.348 90.8873 79.4606 87.824 80.2528L93.8841 88.0431ZM79.8327 77.9422H85.2934C88.0238 77.9422 89.7553 76.5557 89.7553 74.4431C89.7553 72.3305 88.157 71.0761 85.2934 71.0761H79.8327V77.9422ZM93.8841 88.0431H90.0882L84.6941 80.715H79.8327V88.0431H76.836V68.3693H85.4266C89.8884 68.3693 92.752 70.746 92.752 74.4431C92.752 77.348 90.8873 79.4606 87.824 80.2528L93.8841 88.0431ZM79.8993 78.0082H85.36C88.0904 78.0082 89.8218 76.6218 89.8218 74.5091C89.8218 72.3965 88.2236 71.1421 85.36 71.1421H79.8993V78.0082ZM178.326 88.0431H181.589L172.532 68.2373H170.001L160.944 88.0431H164.074L166.339 82.9596H176.061L178.326 88.0431ZM167.537 80.3189L171.267 71.8684L174.996 80.3189H167.537ZM67.979 77.0179C67.979 83.2897 62.8512 88.3732 56.5248 88.3732C50.1983 88.3732 45.0706 83.2897 45.0706 77.0179C45.0706 71.4062 49.1994 66.7188 54.5935 65.8606V65.9266C50.3981 67.5771 47.8675 71.4722 47.8675 76.0936C47.8675 81.9693 52.0629 85.3363 56.5248 85.3363C61.1863 85.3363 64.9156 81.5732 64.9156 77.0179C64.9156 73.0567 61.7857 69.7557 57.6569 69.7557C52.9287 69.7557 50.6645 74.047 50.6645 74.047H50.5979C50.5979 74.047 52.7289 67.9072 58.9221 67.9072C62.7846 67.9072 67.979 71.0101 67.979 77.0179Z" fill="#888888"/>
</g>
</svg>
