<?xml version="1.0" encoding="UTF-8" standalone="no"?><svg width="281" height="168" viewBox="0 0 281 168" fill="none" xmlns="http://www.w3.org/2000/svg">
<g opacity="0.8">
<path opacity="0.9" d="M88.3623 48.6785C83.7663 48.6785 79.2153 49.5791 74.9691 51.329C70.7229 53.079 66.8647 55.6439 63.6148 58.8774C60.3649 62.1109 57.787 65.9496 56.0281 70.1743C54.2693 74.3991 53.3641 78.9271 53.3641 83.5C53.3641 88.0728 54.2693 92.6008 56.0282 96.8255C57.787 101.05 60.365 104.889 63.6148 108.122C66.8647 111.356 70.7229 113.921 74.9691 115.671C79.2153 117.421 83.7663 118.321 88.3623 118.321C97.6443 118.321 106.546 114.652 113.109 108.122C119.673 101.592 123.36 92.7351 123.36 83.5C123.36 74.2648 119.673 65.4079 113.109 58.8777C106.546 52.3474 97.6443 48.6786 88.3623 48.6785ZM110.398 50.8224C121.131 57.8048 128.25 69.8663 128.25 83.5294C128.25 97.1543 121.171 109.186 110.488 116.177C125.199 112.07 135.372 98.7319 135.387 83.5294C135.387 68.28 125.166 54.9022 110.398 50.8224ZM92.1022 64.1636C94.2322 64.1668 96.3614 64.2024 98.4886 64.3105C101.329 64.6694 103.967 66.2008 105.64 68.5039C108.718 72.4033 108.497 78.229 105.769 82.2561C103.335 85.8901 98.9835 88.2764 94.5594 88.0151C91.8619 88.0602 89.1641 88.0709 86.4663 88.0976C86.367 88.9058 86.242 89.7091 86.1087 90.5111L85.452 94.946C87.7579 95.0999 89.9984 95.1797 92.2729 95.2625C92.1091 96.9609 91.7812 98.79 91.5827 100.556C91.6296 101.478 91.2074 101.839 90.3181 101.636C83.8214 101.62 77.6485 101.685 71.1537 101.564C71.1938 99.9055 71.711 96.7061 71.9633 95.0597C71.9633 95.0597 72.8929 95.1037 73.301 95.1182C75.0423 95.0712 76.7145 95.1525 78.3375 95.08C78.3889 94.9799 78.4368 94.878 78.4814 94.773L79.5261 87.9632C77.6575 87.8925 75.5634 87.8288 73.5887 87.7784C73.6727 86.0603 74.2494 83.0528 74.3975 81.2744C74.3975 81.2744 74.6469 81.2438 75.5145 81.2362L80.7839 81.193C81.3396 77.8096 81.9539 74.4179 82.2776 71.0067C80.2861 70.6228 78.1545 71.0746 76.1324 70.7348C76.0166 69.979 76.389 68.1055 76.6673 66.4354L76.9421 64.2316L81.4521 64.2392C85.0007 64.2425 88.5524 64.1578 92.1022 64.1636ZM190.299 69.0096L176.59 96.5117H183.686L186.11 91.521H194.343L196.764 96.5117H203.934L190.299 69.0096ZM160.547 69.3425L153.45 85.3849L148.36 70.6363H140.93L152.15 97.9901L160.547 82.4648L168.905 97.9901L180.162 70.6363H172.695L167.642 85.3849L160.547 69.3425ZM201.262 70.6363L210.326 86.0132V96.5116H216.754V85.9761L225.893 70.6363H218.611L213.521 80.3579L208.469 70.6363H201.262ZM92.7513 70.8559C91.6476 70.8544 90.5432 70.8674 89.4398 70.8574C88.8604 73.0252 88.6876 75.2928 88.284 77.5045L88.2332 77.8504C88.3006 78.1455 88.196 78.5766 88.0567 79.0329L87.7552 81.0566C87.8467 81.1666 88.0001 81.2257 88.2407 81.2127C90.8844 81.2559 93.544 81.3452 96.1794 81.1211L96.4069 81.0642L96.6261 80.9916C99.5965 80.186 101.718 76.8653 100.739 73.8397C100.234 71.7827 97.9958 70.9276 96.0607 70.9378C94.9584 70.8748 93.855 70.8574 92.7513 70.8559ZM190.299 80.1732L193.18 86.7529H187.389L190.299 80.1732Z" fill="#888888"/>
</g>
</svg>
