<?xml version="1.0" encoding="UTF-8" standalone="no"?><svg width="281" height="168" viewBox="0 0 281 168" fill="none" xmlns="http://www.w3.org/2000/svg">
<g opacity="0.8">
<path d="M34.0178 88.1007C36.8158 88.1007 39.0697 85.8489 39.0697 83.0537C39.0697 80.2584 36.8158 78.0066 34.0178 78.0066C31.2199 78.0066 28.966 80.2584 28.966 83.0537C28.966 85.8489 31.2199 88.1007 34.0178 88.1007Z" fill="#888888"/>
<path d="M53.217 88.1007C56.0149 88.1007 58.2688 85.8489 58.2688 83.0537C58.2688 80.2584 56.0149 78.0066 53.217 78.0066C50.4191 78.0066 48.1652 80.2584 48.1652 83.0537C48.1652 85.8489 50.4191 88.1007 53.217 88.1007Z" fill="#888888"/>
<path d="M72.4125 88.1007C75.2105 88.1007 77.4644 85.8489 77.4644 83.0537C77.4644 80.2584 75.2105 78.0066 72.4125 78.0066C69.6146 78.0066 67.3607 80.2584 67.3607 83.0537C67.3607 85.8489 69.6923 88.1007 72.4125 88.1007Z" fill="#888888"/>
<path d="M99.0889 82.4352V77.7274H101.724C103.64 77.7274 104.439 78.5763 104.439 80.1199C104.439 81.5862 103.56 82.4352 101.724 82.4352H99.0889ZM107.872 80.0427C107.872 77.2643 105.876 75.0262 101.804 75.0262H95.6553V91.2333H99.009V85.0592H101.804C106.196 85.0592 107.872 82.5123 107.872 80.0427ZM121.207 75.0262H111.546V91.2333H121.207V88.6093H114.899V84.2874H120.569V81.7406H114.899V77.7274H121.207V75.0262ZM124.561 77.7274H129.033V91.2333H132.387V77.7274H136.858V75.1034H124.561V77.7274ZM157.06 75.0262H147.399V91.2333H157.06V88.6093H150.752V84.2874H156.422V81.7406H150.752V77.7274H157.06V75.0262ZM171.354 91.2333H175.187L169.837 83.2069L175.107 75.1034H171.274L168 80.5057L164.407 75.1034H160.574L165.924 83.1297L160.654 91.2333H164.407L167.681 85.8309L171.354 91.2333ZM182.293 82.4352V77.7274H184.928C186.845 77.7274 187.643 78.5763 187.643 80.1199C187.643 81.5862 186.765 82.4352 184.928 82.4352H182.293ZM191.157 80.0427C191.157 77.2643 189.16 75.0262 185.088 75.0262H178.94V91.2333H182.293V85.0592H185.088C189.4 85.0592 191.157 82.5123 191.157 80.0427ZM203.534 80.1199C203.534 81.5862 202.655 82.5123 200.819 82.5123H198.024V77.8046H200.819C202.735 77.7274 203.534 78.6535 203.534 80.1199ZM194.67 75.1034V91.2333H198.024V84.9048H199.621L203.294 91.2333H207.207L203.214 84.6733C205.929 83.9787 207.047 81.9721 207.047 80.0427C207.047 77.3415 205.051 75.1034 200.978 75.1034H194.67ZM220.941 75.0262H211.279V91.2333H220.941V88.6093H214.633V84.2874H220.222V81.7406H214.633V77.7274H220.941V75.0262ZM236.911 86.5255C236.911 80.8144 228.367 82.6667 228.367 79.4253C228.367 78.1133 229.325 77.4959 230.683 77.4959C232.12 77.4959 232.998 78.3448 233.078 79.4253H236.751C236.512 76.4926 234.196 74.7947 230.763 74.7947C227.329 74.7947 224.854 76.5697 224.854 79.5024C224.854 85.3679 233.478 83.2841 233.478 86.757C233.478 87.9147 232.519 88.6865 231.002 88.6865C229.405 88.6865 228.527 87.8375 228.447 86.5255H224.774C224.854 89.6126 227.489 91.3105 231.002 91.3105C234.755 91.3876 236.911 89.0723 236.911 86.5255ZM252.722 86.5255C252.722 80.8144 244.177 82.6667 244.177 79.4253C244.177 78.1133 245.136 77.4959 246.493 77.4959C247.93 77.4959 248.809 78.3448 248.889 79.4253H252.562C252.322 76.4926 250.007 74.7947 246.573 74.7947C243.139 74.7947 240.664 76.5697 240.664 79.5024C240.664 85.3679 249.288 83.2841 249.288 86.757C249.288 87.9147 248.33 88.6865 246.813 88.6865C245.216 88.6865 244.337 87.8375 244.257 86.5255H240.664C240.744 89.6126 243.379 91.3105 246.892 91.3105C250.566 91.3876 252.722 89.0723 252.722 86.5255Z" fill="#888888"/>
</g>
</svg>
