<?xml version="1.0" encoding="UTF-8" standalone="no"?><svg width="281" height="167" viewBox="0 0 281 167" fill="none" xmlns="http://www.w3.org/2000/svg">
<g opacity="0.8">
<path d="M70.4665 78.3721C70.4665 80.2556 69.9658 81.984 68.9645 83.5573C67.9631 85.1306 66.5066 86.4158 64.5949 87.4129C62.6833 88.4101 60.4075 88.9973 57.7675 89.1746L56.2996 97.1851C55.7307 100.265 54.1831 101.805 51.657 101.805C50.2688 101.805 48.9829 101.406 47.7995 100.609C46.6389 99.8109 45.7058 98.5922 45.0003 96.9524C44.2948 95.3126 43.942 93.2962 43.942 90.903C43.942 86.4047 44.6817 82.5933 46.161 79.4689C47.663 76.3223 49.6657 73.9735 52.1691 72.4224C54.6952 70.8491 57.4717 70.0624 60.4985 70.0624C62.6377 70.0624 64.447 70.428 65.9263 71.1593C67.4283 71.8905 68.5548 72.8877 69.3058 74.1508C70.0796 75.3917 70.4665 76.7988 70.4665 78.3721ZM58.382 85.751C63.0474 85.1749 65.3801 82.8149 65.3801 78.6712C65.3801 77.2087 64.8794 76.0232 63.8781 75.1147C62.8995 74.184 61.3747 73.7187 59.3037 73.7187C56.9596 73.7187 54.9114 74.4388 53.159 75.8792C51.4294 77.3195 50.0867 79.3249 49.1309 81.8953C48.1978 84.4436 47.7313 87.3575 47.7313 90.6371C47.7313 92.0109 47.8678 93.2297 48.1409 94.2933C48.4368 95.357 48.8009 96.1879 49.2333 96.7862C49.6884 97.3624 50.1208 97.6504 50.5305 97.6504C51.0994 97.6504 51.5318 96.8859 51.8277 95.357L52.9542 89.0749C52.0667 88.9419 51.6798 88.8865 51.7936 88.9087C51.1108 88.7979 50.667 88.5984 50.4622 88.3104C50.2574 88.0002 50.155 87.6124 50.155 87.147C50.155 86.6595 50.2915 86.2718 50.5646 85.9837C50.8605 85.6956 51.2587 85.5516 51.7594 85.5516C51.987 85.5516 52.1577 85.5627 52.2715 85.5848C52.8177 85.6735 53.2387 85.7289 53.5345 85.751C53.8304 84.0226 54.2514 81.707 54.7976 78.8042C54.9342 78.0507 55.2414 77.5189 55.7193 77.2087C56.22 76.8763 56.8003 76.7101 57.4603 76.7101C58.2113 76.7101 58.7461 76.8542 59.0647 77.1422C59.4061 77.4081 59.5768 77.8402 59.5768 78.4385C59.5768 78.7931 59.554 79.0811 59.5085 79.3027L58.382 85.751Z" fill="#888888" fill-opacity="0.8"/>
<path d="M85.0048 90.77C85.3007 90.77 85.5283 90.903 85.6876 91.1689C85.8696 91.4348 85.9607 91.8004 85.9607 92.2658C85.9607 93.1521 85.7445 93.8391 85.3121 94.3266C84.47 95.3237 83.2752 96.2433 81.7277 97.0854C80.2029 97.9274 78.5643 98.3484 76.812 98.3484C74.4224 98.3484 72.5676 97.7169 71.2476 96.4538C69.9277 95.1908 69.2677 93.4624 69.2677 91.2686C69.2677 89.7396 69.5977 88.3215 70.2577 87.0141C70.9176 85.6845 71.828 84.632 72.9886 83.8564C74.172 83.0809 75.5034 82.6931 76.9827 82.6931C78.3026 82.6931 79.3609 83.0809 80.1574 83.8564C80.9539 84.6098 81.3522 85.6402 81.3522 86.9476C81.3522 88.4766 80.7832 89.795 79.6453 90.903C78.5302 91.9888 76.6299 92.853 73.9445 93.4956C74.5134 94.5149 75.5944 95.0246 77.1875 95.0246C78.2116 95.0246 79.3722 94.6811 80.6694 93.9942C81.9894 93.2851 83.1273 92.3655 84.0831 91.2354C84.3562 90.9251 84.6635 90.77 85.0048 90.77ZM76.4023 85.9504C75.5603 85.9504 74.8434 86.4269 74.2517 87.3797C73.6827 88.3325 73.3983 89.4848 73.3983 90.8365V90.903C74.741 90.5928 75.7992 90.1274 76.573 89.507C77.3468 88.8865 77.7337 88.1663 77.7337 87.3465C77.7337 86.9254 77.6085 86.5931 77.3582 86.3493C77.1306 86.0834 76.812 85.9504 76.4023 85.9504Z" fill="#888888" fill-opacity="0.8"/>
<path d="M98.4063 90.77C98.7021 90.77 98.9297 90.903 99.089 91.1689C99.2711 91.4348 99.3621 91.8004 99.3621 92.2658C99.3621 93.1521 99.1459 93.8391 98.7135 94.3266C97.7349 95.501 96.6653 96.4649 95.5046 97.2183C94.344 97.9717 93.0126 98.3484 91.5106 98.3484C86.868 98.3484 84.5467 95.1686 84.5467 88.809C84.5467 87.834 84.5808 86.8479 84.6491 85.8507H83.3177C82.635 85.8507 82.1685 85.7289 81.9181 85.4851C81.6905 85.2414 81.5767 84.8536 81.5767 84.3218C81.5767 83.0809 82.0888 82.4604 83.1129 82.4604H85.0587C85.4456 80.0229 86.0373 77.7959 86.8338 75.7794C87.6304 73.763 88.5862 72.1564 89.7013 70.9599C90.8392 69.7633 92.0568 69.165 93.354 69.165C94.3098 69.165 95.0609 69.5749 95.607 70.3948C96.1532 71.2147 96.4263 72.2451 96.4263 73.486C96.4263 76.9206 94.9471 79.9121 91.9885 82.4604H95.8119C96.176 82.4604 96.4377 82.538 96.597 82.6931C96.7563 82.8482 96.836 83.1362 96.836 83.5573C96.836 85.0862 95.5502 85.8507 92.9785 85.8507H88.8138C88.7683 86.9587 88.7455 87.8229 88.7455 88.4433C88.7455 90.7479 89.0186 92.3655 89.5648 93.2962C90.1338 94.2268 91.0213 94.6922 92.2275 94.6922C93.2061 94.6922 94.0709 94.4041 94.8219 93.828C95.5729 93.2519 96.4605 92.3876 97.4846 91.2354C97.7577 90.9251 98.0649 90.77 98.4063 90.77ZM92.4323 72.3559C92.0909 72.3559 91.7041 72.7769 91.2717 73.6189C90.862 74.4388 90.4637 75.5911 90.0769 77.0757C89.7127 78.5382 89.4055 80.1669 89.1552 81.9618C90.4979 80.8317 91.4992 79.5686 92.1592 78.1726C92.842 76.7544 93.1833 75.4692 93.1833 74.3169C93.1833 73.0096 92.933 72.3559 92.4323 72.3559Z" fill="#888888" fill-opacity="0.8"/>
<path d="M101.055 80.4993C100.099 80.4993 99.3819 80.2888 98.9039 79.8678C98.426 79.4246 98.1871 78.8152 98.1871 78.0397C98.1871 77.2641 98.4943 76.6215 99.1088 76.1118C99.746 75.58 100.531 75.3141 101.464 75.3141C102.306 75.3141 102.989 75.5135 103.512 75.9124C104.036 76.3113 104.298 76.8763 104.298 77.6076C104.298 78.4939 104.002 79.203 103.41 79.7348C102.818 80.2445 102.033 80.4993 101.055 80.4993ZM100.781 98.3484C99.3022 98.3484 98.2212 97.8388 97.5385 96.8195C96.8785 95.8001 96.5485 94.4484 96.5485 92.7643C96.5485 91.7672 96.6736 90.493 96.924 88.9419C97.1971 87.3686 97.5385 85.9061 97.9481 84.5544C98.1529 83.8453 98.426 83.3578 98.7674 83.0919C99.1088 82.826 99.6549 82.6931 100.406 82.6931C101.567 82.6931 102.147 83.0698 102.147 83.8232C102.147 84.3772 101.931 85.6624 101.498 87.6789C100.952 90.1163 100.679 91.7672 100.679 92.6314C100.679 93.2962 100.77 93.8058 100.952 94.1604C101.134 94.5149 101.441 94.6922 101.874 94.6922C102.283 94.6922 102.796 94.4152 103.41 93.8612C104.024 93.3072 104.844 92.432 105.868 91.2354C106.141 90.9251 106.448 90.77 106.79 90.77C107.085 90.77 107.313 90.903 107.472 91.1689C107.654 91.4348 107.745 91.8004 107.745 92.2658C107.745 93.1521 107.529 93.8391 107.097 94.3266C104.844 97.0078 102.739 98.3484 100.781 98.3484Z" fill="#888888" fill-opacity="0.8"/>
<path d="M120.209 90.77C120.504 90.77 120.732 90.903 120.891 91.1689C121.073 91.4348 121.164 91.8004 121.164 92.2658C121.164 93.1521 120.948 93.8391 120.516 94.3266C119.537 95.501 118.468 96.4649 117.307 97.2183C116.146 97.9717 114.815 98.3484 113.313 98.3484C108.67 98.3484 106.349 95.1686 106.349 88.809C106.349 87.834 106.383 86.8479 106.451 85.8507H105.12C104.437 85.8507 103.971 85.7289 103.72 85.4851C103.493 85.2414 103.379 84.8536 103.379 84.3218C103.379 83.0809 103.891 82.4604 104.915 82.4604H106.861C107.248 80.0229 107.84 77.7959 108.636 75.7794C109.433 73.763 110.389 72.1564 111.504 70.9599C112.642 69.7633 113.859 69.165 115.156 69.165C116.112 69.165 116.863 69.5749 117.409 70.3948C117.956 71.2147 118.229 72.2451 118.229 73.486C118.229 76.9206 116.749 79.9121 113.791 82.4604H117.614C117.978 82.4604 118.24 82.538 118.399 82.6931C118.559 82.8482 118.638 83.1362 118.638 83.5573C118.638 85.0862 117.352 85.8507 114.781 85.8507H110.616C110.571 86.9587 110.548 87.8229 110.548 88.4433C110.548 90.7479 110.821 92.3655 111.367 93.2962C111.936 94.2268 112.824 94.6922 114.03 94.6922C115.008 94.6922 115.873 94.4041 116.624 93.828C117.375 93.2519 118.263 92.3876 119.287 91.2354C119.56 90.9251 119.867 90.77 120.209 90.77ZM114.235 72.3559C113.893 72.3559 113.506 72.7769 113.074 73.6189C112.664 74.4388 112.266 75.5911 111.879 77.0757C111.515 78.5382 111.208 80.1669 110.957 81.9618C112.3 80.8317 113.302 79.5686 113.962 78.1726C114.644 76.7544 114.986 75.4692 114.986 74.3169C114.986 73.0096 114.735 72.3559 114.235 72.3559Z" fill="#888888" fill-opacity="0.8"/>
<path d="M130.606 91.7672C130.902 91.7672 131.129 91.9001 131.289 92.1661C131.471 92.432 131.562 92.7976 131.562 93.2629C131.562 94.0607 131.368 94.7476 130.982 95.3237C130.344 96.2766 129.502 97.0189 128.455 97.5507C127.431 98.0825 126.202 98.3484 124.769 98.3484C122.584 98.3484 120.888 97.7169 119.682 96.4538C118.476 95.1686 117.873 93.4402 117.873 91.2686C117.873 89.7396 118.203 88.3215 118.863 87.0141C119.523 85.6845 120.433 84.632 121.594 83.8564C122.777 83.0809 124.109 82.6931 125.588 82.6931C126.908 82.6931 127.966 83.0809 128.763 83.8564C129.559 84.6098 129.957 85.6402 129.957 86.9476C129.957 88.4766 129.388 89.795 128.251 90.903C127.135 91.9888 125.224 92.853 122.516 93.4956C123.062 94.5149 123.983 95.0246 125.281 95.0246C126.214 95.0246 126.976 94.8141 127.568 94.393C128.182 93.972 128.888 93.2629 129.684 92.2658C129.957 91.9334 130.265 91.7672 130.606 91.7672ZM125.008 85.9504C124.165 85.9504 123.449 86.4269 122.857 87.3797C122.288 88.3325 122.003 89.4848 122.003 90.8365V90.903C123.346 90.5928 124.404 90.1274 125.178 89.507C125.952 88.8865 126.339 88.1663 126.339 87.3465C126.339 86.9254 126.214 86.5931 125.963 86.3493C125.736 86.0834 125.417 85.9504 125.008 85.9504Z" fill="#888888" fill-opacity="0.8"/>
<path d="M150.057 98.3484C148.486 98.3484 147.064 97.9717 145.789 97.2183C144.538 96.4649 143.548 95.3791 142.82 93.9609C142.091 92.5206 141.727 90.8254 141.727 88.8754C141.727 85.5073 142.467 82.3939 143.946 79.5354C145.425 76.6547 147.61 74.3502 150.5 72.6218C153.391 70.8712 156.861 69.9959 160.912 69.9959C161.959 69.9959 163.074 70.0735 164.258 70.2286C165.464 70.3837 166.556 70.6164 167.535 70.9266C168.172 71.1039 168.491 71.5471 168.491 72.2562C168.491 72.8323 168.263 73.3752 167.808 73.8848C167.375 74.3945 166.863 74.6493 166.272 74.6493C166.09 74.6493 165.953 74.6383 165.862 74.6161C164.679 74.3502 163.666 74.1618 162.824 74.051C161.982 73.9181 161.094 73.8516 160.161 73.8516C157.271 73.8516 154.813 74.5385 152.788 75.9124C150.762 77.2641 149.249 79.059 148.247 81.297C147.246 83.5351 146.745 85.9504 146.745 88.5431C146.745 90.4266 147.121 91.8891 147.872 92.9305C148.646 93.9499 149.647 94.4595 150.876 94.4595C152.264 94.4595 153.482 93.9055 154.529 92.7976C155.575 91.6896 156.531 89.8948 157.396 87.4129C158.261 84.9311 159.114 81.563 159.956 77.3084C160.093 76.688 160.366 76.2669 160.776 76.0454C161.185 75.8238 161.731 75.713 162.414 75.713C164.03 75.713 164.838 76.2226 164.838 77.2419C164.838 77.4192 164.804 77.6408 164.736 77.9067C164.144 80.0561 163.598 82.4382 163.097 85.053C162.619 87.6456 162.38 89.6178 162.38 90.9695C162.38 92.1661 162.562 93.0413 162.926 93.5953C163.29 94.1271 163.848 94.393 164.599 94.393C165.327 94.393 166.021 94.1604 166.681 93.695C167.341 93.2075 168.172 92.3876 169.173 91.2354C169.446 90.9251 169.754 90.77 170.095 90.77C170.391 90.77 170.618 90.903 170.778 91.1689C170.96 91.4348 171.051 91.8004 171.051 92.2658C171.051 93.13 170.835 93.8169 170.402 94.3266C169.287 95.6339 168.195 96.6311 167.125 97.318C166.055 98.005 164.747 98.3484 163.199 98.3484C161.606 98.3484 160.32 97.9052 159.342 97.0189C158.363 96.1104 157.749 94.8362 157.498 93.1965C155.814 96.6311 153.334 98.3484 150.057 98.3484Z" fill="#888888" fill-opacity="0.8"/>
<path d="M170.714 98.3484C169.849 98.3484 169.235 97.9052 168.871 97.0189C168.529 96.1325 168.359 94.7143 168.359 92.7643C168.359 89.8837 168.78 87.147 169.622 84.5544C169.826 83.9118 170.156 83.4465 170.612 83.1584C171.09 82.8482 171.75 82.6931 172.592 82.6931C173.047 82.6931 173.365 82.7485 173.547 82.8593C173.729 82.9701 173.82 83.1806 173.82 83.4908C173.82 83.8453 173.65 84.6431 173.308 85.884C173.081 86.7703 172.899 87.5459 172.762 88.2107C172.626 88.8533 172.512 89.6621 172.421 90.6371C173.035 88.9087 173.764 87.4462 174.606 86.2496C175.47 85.053 176.347 84.1666 177.234 83.5905C178.145 82.9922 178.998 82.6931 179.794 82.6931C180.591 82.6931 181.149 82.8703 181.467 83.2249C181.809 83.5794 181.979 84.1223 181.979 84.8536C181.979 85.5627 181.763 86.8479 181.331 88.7092C181.149 89.507 181.023 90.1053 180.955 90.5041C182.093 87.7786 183.356 85.7953 184.744 84.5544C186.133 83.3135 187.43 82.6931 188.636 82.6931C190.115 82.6931 190.855 83.4132 190.855 84.8536C190.855 85.7178 190.605 87.28 190.104 89.5402C189.671 91.468 189.455 92.7422 189.455 93.3626C189.455 94.249 189.785 94.6922 190.445 94.6922C190.9 94.6922 191.435 94.4263 192.05 93.8945C192.687 93.3405 193.529 92.4541 194.576 91.2354C194.849 90.9251 195.156 90.77 195.497 90.77C195.793 90.77 196.021 90.903 196.18 91.1689C196.362 91.4348 196.453 91.8004 196.453 92.2658C196.453 93.1521 196.237 93.8391 195.805 94.3266C194.826 95.501 193.768 96.4649 192.63 97.2183C191.515 97.9717 190.24 98.3484 188.807 98.3484C187.646 98.3484 186.77 98.0271 186.178 97.3845C185.586 96.7197 185.291 95.7669 185.291 94.526C185.291 93.9055 185.45 92.7976 185.768 91.2021C186.064 89.8061 186.212 88.8422 186.212 88.3104C186.212 87.9558 186.087 87.7786 185.837 87.7786C185.541 87.7786 185.12 88.1553 184.574 88.9087C184.027 89.6399 183.481 90.6149 182.935 91.8337C182.389 93.0524 181.945 94.3376 181.604 95.6893C181.353 96.753 181.058 97.4621 180.716 97.8166C180.398 98.1712 179.874 98.3484 179.146 98.3484C178.395 98.3484 177.826 98.005 177.439 97.318C177.075 96.6089 176.893 95.7558 176.893 94.7587C176.893 93.9166 177.007 92.6979 177.234 91.1024C177.416 89.6842 177.507 88.7536 177.507 88.3104C177.507 87.9558 177.382 87.7786 177.132 87.7786C176.79 87.7786 176.358 88.1774 175.835 88.9752C175.311 89.7729 174.799 90.7922 174.298 92.0331C173.82 93.274 173.434 94.4928 173.138 95.6893C172.887 96.7308 172.592 97.4399 172.25 97.8166C171.932 98.1712 171.42 98.3484 170.714 98.3484Z" fill="#888888" fill-opacity="0.8"/>
<path d="M208.918 90.77C209.214 90.77 209.442 90.903 209.601 91.1689C209.783 91.4348 209.874 91.8004 209.874 92.2658C209.874 93.1521 209.658 93.8391 209.225 94.3266C208.383 95.3237 207.189 96.2433 205.641 97.0854C204.116 97.9274 202.478 98.3484 200.725 98.3484C198.336 98.3484 196.481 97.7169 195.161 96.4538C193.841 95.1908 193.181 93.4624 193.181 91.2686C193.181 89.7396 193.511 88.3215 194.171 87.0141C194.831 85.6845 195.741 84.632 196.902 83.8564C198.085 83.0809 199.417 82.6931 200.896 82.6931C202.216 82.6931 203.274 83.0809 204.071 83.8564C204.867 84.6098 205.265 85.6402 205.265 86.9476C205.265 88.4766 204.697 89.795 203.559 90.903C202.443 91.9888 200.543 92.853 197.858 93.4956C198.427 94.5149 199.508 95.0246 201.101 95.0246C202.125 95.0246 203.286 94.6811 204.583 93.9942C205.903 93.2851 207.041 92.3655 207.996 91.2354C208.27 90.9251 208.577 90.77 208.918 90.77ZM200.316 85.9504C199.474 85.9504 198.757 86.4269 198.165 87.3797C197.596 88.3325 197.312 89.4848 197.312 90.8365V90.903C198.654 90.5928 199.713 90.1274 200.486 89.507C201.26 88.8865 201.647 88.1663 201.647 87.3465C201.647 86.9254 201.522 86.5931 201.271 86.3493C201.044 86.0834 200.725 85.9504 200.316 85.9504Z" fill="#888888" fill-opacity="0.8"/>
<path d="M220.032 90.77C220.328 90.77 220.556 90.903 220.715 91.1689C220.897 91.4348 220.988 91.8004 220.988 92.2658C220.988 93.1521 220.772 93.8391 220.34 94.3266C219.361 95.501 218.291 96.4649 217.131 97.2183C215.993 97.9717 214.696 98.3484 213.239 98.3484C211.236 98.3484 209.746 97.4621 208.767 95.6893C207.811 93.9166 207.333 91.6232 207.333 88.809C207.333 86.1056 207.686 83.0255 208.392 79.5686C209.12 76.1118 210.178 73.1425 211.566 70.6607C212.977 68.1789 214.65 66.938 216.585 66.938C217.677 66.938 218.53 67.4366 219.145 68.4337C219.782 69.4087 220.101 70.8158 220.101 72.655C220.101 75.2919 219.35 78.3499 217.848 81.8289C216.346 85.3078 214.309 88.7536 211.737 92.1661C211.896 93.0746 212.158 93.7283 212.522 94.1271C212.886 94.5038 213.364 94.6922 213.956 94.6922C214.889 94.6922 215.708 94.4374 216.414 93.9277C217.119 93.3959 218.018 92.4984 219.111 91.2354C219.384 90.9251 219.691 90.77 220.032 90.77ZM215.834 70.2286C215.31 70.2286 214.718 71.1482 214.058 72.9874C213.398 74.8266 212.818 77.109 212.317 79.8345C211.817 82.5601 211.544 85.1749 211.498 87.6789C213.114 85.0862 214.4 82.4936 215.356 79.901C216.311 77.2863 216.789 74.9042 216.789 72.7547C216.789 71.0707 216.471 70.2286 215.834 70.2286Z" fill="#888888" fill-opacity="0.8"/>
<path d="M222.701 80.4993C221.745 80.4993 221.028 80.2888 220.55 79.8678C220.072 79.4246 219.833 78.8152 219.833 78.0397C219.833 77.2641 220.141 76.6215 220.755 76.1118C221.392 75.58 222.178 75.3141 223.111 75.3141C223.953 75.3141 224.635 75.5135 225.159 75.9124C225.682 76.3113 225.944 76.8763 225.944 77.6076C225.944 78.4939 225.648 79.203 225.056 79.7348C224.465 80.2445 223.68 80.4993 222.701 80.4993ZM222.428 98.3484C220.949 98.3484 219.868 97.8388 219.185 96.8195C218.525 95.8001 218.195 94.4484 218.195 92.7643C218.195 91.7672 218.32 90.493 218.57 88.9419C218.843 87.3686 219.185 85.9061 219.594 84.5544C219.799 83.8453 220.072 83.3578 220.414 83.0919C220.755 82.826 221.301 82.6931 222.052 82.6931C223.213 82.6931 223.793 83.0698 223.793 83.8232C223.793 84.3772 223.577 85.6624 223.145 87.6789C222.598 90.1163 222.325 91.7672 222.325 92.6314C222.325 93.2962 222.416 93.8058 222.599 94.1604C222.781 94.5149 223.088 94.6922 223.52 94.6922C223.93 94.6922 224.442 94.4152 225.056 93.8612C225.671 93.3072 226.49 92.432 227.514 91.2354C227.787 90.9251 228.095 90.77 228.436 90.77C228.732 90.77 228.959 90.903 229.119 91.1689C229.301 91.4348 229.392 91.8004 229.392 92.2658C229.392 93.1521 229.176 93.8391 228.743 94.3266C226.49 97.0078 224.385 98.3484 222.428 98.3484Z" fill="#888888" fill-opacity="0.8"/>
<path d="M238.851 91.7672C239.147 91.7672 239.374 91.9001 239.534 92.1661C239.716 92.432 239.807 92.7976 239.807 93.2629C239.807 94.0607 239.613 94.7476 239.226 95.3237C238.589 96.2766 237.747 97.0189 236.7 97.5507C235.676 98.0825 234.447 98.3484 233.014 98.3484C230.829 98.3484 229.133 97.7169 227.927 96.4538C226.721 95.1686 226.118 93.4402 226.118 91.2686C226.118 89.7396 226.448 88.3215 227.108 87.0141C227.768 85.6845 228.678 84.632 229.839 83.8564C231.022 83.0809 232.354 82.6931 233.833 82.6931C235.153 82.6931 236.211 83.0809 237.008 83.8564C237.804 84.6098 238.202 85.6402 238.202 86.9476C238.202 88.4766 237.633 89.795 236.495 90.903C235.38 91.9888 233.469 92.853 230.76 93.4956C231.307 94.5149 232.228 95.0246 233.526 95.0246C234.459 95.0246 235.221 94.8141 235.813 94.393C236.427 93.972 237.133 93.2629 237.929 92.2658C238.202 91.9334 238.51 91.7672 238.851 91.7672ZM233.252 85.9504C232.41 85.9504 231.694 86.4269 231.102 87.3797C230.533 88.3325 230.248 89.4848 230.248 90.8365V90.903C231.591 90.5928 232.649 90.1274 233.423 89.507C234.197 88.8865 234.584 88.1663 234.584 87.3465C234.584 86.9254 234.459 86.5931 234.208 86.3493C233.981 86.0834 233.662 85.9504 233.252 85.9504Z" fill="#888888" fill-opacity="0.8"/>
</g>
</svg>
