<?xml version="1.0" encoding="UTF-8" standalone="no"?><svg width="281" height="167" viewBox="0 0 281 167" fill="none" xmlns="http://www.w3.org/2000/svg">
<g opacity="0.8">
<path fill-rule="evenodd" clip-rule="evenodd" d="M60.8617 74.2516C66.0744 66.4644 75.0779 61.0867 84.1966 61.0867C96.6575 61.0867 104.613 71.1917 101.965 83.6572H45.5584V74.2516H60.8617Z" fill="#C2C2C2"/>
<path fill-rule="evenodd" clip-rule="evenodd" d="M98.4927 92.1747C93.3813 100.418 84.0537 106.23 74.6047 106.23C65.324 106.23 58.5724 100.649 56.8086 92.6385C56.7617 92.4232 63.2373 84.8247 77.0634 84.9473C94.7476 85.1051 98.6078 91.9892 98.4927 92.1747Z" fill="#979797"/>
<path fill-rule="evenodd" clip-rule="evenodd" d="M113.25 83.6573V92.3401C113.25 92.3401 111.89 92.4158 111.649 92.4158C110.616 92.4467 109.49 92.2388 109.49 92.2388C109.49 92.2388 108.809 92.0725 108.278 92.2036C107.92 92.291 107.152 92.5629 106.407 92.5863C105.738 92.6087 105.078 92.4488 104.702 92.3859C104.264 92.2921 103.482 91.8539 102.575 91.9168C102.457 91.9168 101.846 91.9968 101.226 92.0938C100.856 92.1514 100.486 92.2366 100.209 92.2718C99.3432 92.3859 99.1194 92.2793 98.8317 92.242C98.708 92.2249 98.626 92.194 98.4928 92.1759C97.8629 92.0874 97.5592 92.016 96.8675 92.2985C96.6618 92.3827 95.336 92.4765 94.8138 92.5757C94.1104 92.7089 93.5263 92.3571 93.0904 92.3177C92.436 92.2558 92.1579 92.4915 91.9756 92.5181C91.6975 92.5576 91.0612 92.9446 90.3546 93.0149C90.0125 93.0491 89.6661 92.9371 88.6217 93.0245C88.271 93.0533 87.4632 92.9435 86.9388 92.806C86.4201 92.6786 85.8935 92.5853 85.3626 92.5266C84.6965 92.4637 83.9515 92.3443 83.6637 92.1791C83.1596 91.888 82.29 91.8539 82.0001 91.8208C81.0931 91.7164 80.54 92.3497 79.5648 92.42C78.8987 92.468 78.4021 92.3262 77.8532 92.3347C77.3459 92.3433 76.1032 92.807 75.4275 92.7964C74.3277 92.7772 73.2779 92.3347 72.6683 92.2836C72.3688 92.258 72.0736 92.3059 71.6931 92.3187C71.3542 92.3294 71.0824 92.307 70.8224 92.2921C70.1904 92.2558 69.681 92.3539 69.0159 92.1162C68.6365 91.9808 67.3331 91.9253 66.8844 91.9253C66.2503 91.9253 65.2996 91.759 64.5429 92.0351C63.7127 92.3369 63.4953 92.3123 62.9112 92.3539C62.5158 92.3816 62.2728 92.3635 61.7964 92.4413C61.3179 92.5192 60.9332 92.4691 60.5325 92.4957C59.7417 92.548 59.7811 92.5661 58.5235 92.7932C57.9053 92.9041 56.8097 92.6407 56.8097 92.6407C56.0776 89.9156 56.215 86.5935 56.8375 83.6594H113.25V83.6573ZM180.67 91.3944L181.37 88.8164H183.695C187.017 88.6565 187.294 87.9049 188.102 84.8247L189.203 80.6688C190.564 75.7571 196.305 75.9245 196.305 75.9245H201.303L200.601 78.5024H200.258C196.255 78.3905 195.833 81.4034 195.833 81.4034C195.235 83.846 194.713 87.2246 193.21 88.8537C191.266 91.1897 189.102 91.3944 187.097 91.3944H180.67ZM166.822 76.1356H153.146L149.095 91.1822H162.769L163.498 88.4561H156.654L157.553 85.1627H164.376L165.156 82.2958H158.314L159.138 79.2146H165.984L166.822 76.1356ZM139.363 78.4726H138.394L137.333 82.4024H139.773C142.46 82.2958 142.296 80.2424 142.296 80.2424C142.342 78.3308 139.363 78.4726 139.363 78.4726ZM148.294 79.5345C147.661 75.9586 143.787 76.1356 143.787 76.1356H132.34L128.291 91.1822H134.975L136.641 84.9857C136.95 85.0209 137.52 84.8791 138.004 85.5518C140.166 88.8452 141.359 91.1811 141.359 91.1811H147.806C145.283 87.4997 144.456 86.5071 143.305 85.5518C142.77 85.0561 142.097 84.8791 142.097 84.8791C141.554 84.7373 142.041 84.6318 142.041 84.6318C149.41 84.4558 148.294 79.5345 148.294 79.5345ZM207.369 81.1156C209.134 78.9598 211.501 78.2743 212.66 79.5835C213.82 80.8938 213.331 83.7031 211.566 85.8589C209.803 88.0147 207.434 88.7002 206.276 87.391C205.117 86.0807 205.606 83.2724 207.369 81.1156ZM199.583 86.2875C198.786 81.9685 202.746 77.1889 207.739 75.8072C213.548 74.6387 218.436 76.8701 219.325 81.3299C219.943 85.6851 216.586 90.2525 210.958 91.5628C205.631 92.5544 200.504 90.6417 199.583 86.2875ZM224.357 76.1356L220.304 91.1822H232.141L232.864 88.4561H227.841L231.163 76.1345H224.357V76.1356ZM177.03 78.8265H176.217L174.976 83.4291H176.872C179.959 83.217 179.699 80.9514 179.699 80.9514C179.709 78.6847 177.03 78.8265 177.03 78.8265ZM170.259 76.1356L166.208 91.1822H172.894L174.145 86.5082C180.19 86.1894 181.081 85.9772 181.081 85.9772C187.548 84.9815 186.172 79.8522 186.172 79.8522C185.491 75.9575 179.928 76.1345 179.928 76.1345H170.259V76.1356Z" fill="#8F8F8F"/>
</g>
</svg>
