<?xml version="1.0" encoding="UTF-8" standalone="no"?><svg width="281" height="167" viewBox="0 0 281 167" fill="none" xmlns="http://www.w3.org/2000/svg">
<g opacity="0.8">
<path d="M64.7263 102.299L74.2239 89.8172H65.4712V86.4639H79.4383V89.072L69.9407 101.554H79.997V104.907H64.7263V102.299Z" fill="#888888"/>
<path d="M81.8616 101.554C81.8616 100.808 82.0478 100.063 82.6065 99.3181C83.1652 98.7592 83.7239 98.2003 84.655 97.8277C85.3999 97.4551 86.5173 97.2688 87.4485 97.2688C87.8209 97.2688 88.1934 97.2688 88.5658 97.2688C88.9383 97.2688 89.3107 97.4551 89.6832 97.4551C89.497 96.151 88.3796 95.4058 86.7035 95.4058C85.7724 95.4058 84.655 95.7784 83.7239 96.5236L82.4203 93.5428C83.3514 93.1703 84.0964 92.7977 85.0275 92.6114C85.7724 92.4251 86.7035 92.2388 87.4485 92.2388C88.5658 92.2388 89.6832 92.4251 90.6143 92.984C91.5455 93.3566 92.1042 94.1017 92.6629 94.8469C93.2215 95.5921 93.4078 96.7099 93.4078 97.6414V104.721H90.4281L90.2419 103.417C89.8694 103.975 89.3107 104.348 88.5658 104.534C87.8209 104.721 87.2622 104.907 86.3311 104.907C85.0275 104.907 84.0963 104.534 83.3514 103.975C82.2341 103.417 81.8616 102.671 81.8616 101.554ZM85.3999 100.622C85.3999 100.995 85.5862 101.367 85.9586 101.554C86.3311 101.74 86.7035 101.926 87.2622 101.926C88.0071 101.926 88.5658 101.74 89.1245 101.367C89.6832 100.995 89.8694 100.436 89.8694 99.877V99.6907C89.497 99.5044 89.3107 99.5044 88.9383 99.5044C88.5658 99.5044 88.1934 99.5044 87.8209 99.5044C87.076 99.5044 86.5173 99.6907 86.1449 99.877C85.7724 100.063 85.3999 100.25 85.3999 100.622Z" fill="#888888"/>
<path d="M96.1994 92.6138H99.5515V93.9179C100.11 93.359 100.669 92.9864 101.414 92.8001C102.159 92.6138 102.904 92.4275 103.648 92.4275C104.766 92.4275 105.883 92.6138 106.814 93.1727C107.746 93.7316 108.49 94.4768 108.863 95.4082C109.422 96.3397 109.608 97.4575 109.608 98.7616C109.608 100.066 109.422 101.183 108.863 102.115C108.304 103.046 107.559 103.792 106.814 104.35C105.883 104.909 104.952 105.096 103.648 105.096C102.904 105.096 102.159 104.909 101.414 104.723C100.669 104.537 100.11 104.164 99.5515 103.605V111.057H96.0131C96.1994 111.057 96.1994 92.6138 96.1994 92.6138ZM102.717 95.4082C101.786 95.4082 101.041 95.7808 100.483 96.3397C99.9239 96.8986 99.5515 97.8301 99.5515 98.7616C99.5515 99.6931 99.9239 100.438 100.483 101.183C101.041 101.742 101.786 102.115 102.717 102.115C103.648 102.115 104.393 101.742 104.952 101.183C105.511 100.625 105.883 99.6931 105.883 98.7616C105.883 97.8301 105.511 97.0849 104.952 96.3397C104.393 95.7808 103.648 95.4082 102.717 95.4082Z" fill="#888888"/>
<path d="M120.961 101.554C120.961 100.808 121.147 100.063 121.706 99.3181C122.265 98.7592 122.823 98.2003 123.754 97.8277C124.499 97.4551 125.617 97.2688 126.548 97.2688C126.92 97.2688 127.293 97.2688 127.665 97.2688C128.038 97.2688 128.41 97.4551 128.783 97.4551C128.596 96.151 127.479 95.4058 125.803 95.4058C124.872 95.4058 123.754 95.7784 122.823 96.5236L121.52 93.5428C122.451 93.1703 123.196 92.7977 124.127 92.6114C124.872 92.4251 125.803 92.2388 126.548 92.2388C127.665 92.2388 128.783 92.4251 129.714 92.984C130.645 93.3566 131.204 94.1017 131.762 94.8469C132.321 95.5921 132.507 96.7099 132.507 97.6414V104.721H129.527L129.341 103.417C128.969 103.975 128.41 104.348 127.665 104.534C126.92 104.907 126.362 104.907 125.43 104.907C124.127 104.907 123.196 104.534 122.451 103.975C121.333 103.417 120.961 102.671 120.961 101.554ZM124.499 100.622C124.499 100.995 124.686 101.367 125.058 101.554C125.43 101.74 125.803 101.926 126.362 101.926C127.107 101.926 127.665 101.74 128.224 101.367C128.783 100.995 128.969 100.436 128.969 99.877V99.6907C128.596 99.5044 128.41 99.5044 128.038 99.5044C127.665 99.5044 127.293 99.5044 126.92 99.5044C126.175 99.5044 125.617 99.6907 125.244 99.877C124.686 99.877 124.499 100.25 124.499 100.622Z" fill="#888888"/>
<path d="M149.465 86.2795H155.797C158.031 86.2795 159.894 86.8384 161.011 87.7699C162.315 88.8877 162.873 90.1918 162.873 91.8685C162.873 93.1725 162.501 94.104 161.942 95.0355C161.197 95.967 160.266 96.5259 159.149 97.0848L163.618 104.723H159.335L155.238 97.6437H153.189V104.723H149.465C149.465 104.909 149.465 86.2795 149.465 86.2795ZM155.238 94.6629C156.542 94.6629 157.473 94.4766 158.031 93.9177C158.59 93.5451 158.963 92.7999 158.963 92.0548C158.963 91.3096 158.59 90.5644 158.031 90.1918C157.473 89.8192 156.355 89.4466 155.238 89.4466H153.189V94.6629H155.238Z" fill="#767676"/>
<path d="M167.903 99.6907C168.089 100.436 168.461 100.995 169.206 101.367C169.765 101.74 170.51 101.926 171.255 101.926C172.186 101.926 172.745 101.74 173.303 101.554C173.862 101.367 174.421 100.995 174.793 100.436L177.028 103.044C176.097 103.789 175.166 104.348 174.235 104.534C173.303 104.907 172.372 104.907 171.627 104.907C170.324 104.907 169.02 104.721 168.089 104.162C166.972 103.603 166.227 102.858 165.668 101.926C165.109 100.995 164.737 99.877 164.737 98.5729C164.737 97.2688 165.109 96.3373 165.668 95.2195C166.227 94.288 166.972 93.5428 167.903 92.984C168.834 92.4251 169.951 92.2388 171.255 92.2388C172.558 92.2388 173.676 92.4251 174.607 92.984C175.538 93.5428 176.283 94.288 176.842 95.2195C177.4 96.151 177.773 97.2688 177.773 98.5729V99.6907C177.587 99.6907 167.903 99.6907 167.903 99.6907ZM174.048 97.8277C173.862 97.0825 173.49 96.5236 172.931 96.151C172.372 95.7784 171.814 95.4058 171.069 95.4058C170.324 95.4058 169.579 95.5921 169.02 96.151C168.461 96.5236 168.089 97.2688 167.903 97.8277H174.048Z" fill="#767676"/>
<path d="M190.795 103.233C190.236 103.792 189.491 104.351 188.56 104.537C187.815 104.909 186.884 105.096 185.767 105.096C184.463 105.096 183.346 104.909 182.228 104.35C181.111 103.792 180.366 103.046 179.807 102.115C179.249 101.183 178.876 100.066 178.876 98.7616C178.876 97.4575 179.249 96.3397 179.807 95.4082C180.366 94.4768 181.297 93.7316 182.228 93.1727C183.346 92.6138 184.463 92.4275 185.767 92.4275C186.698 92.4275 187.629 92.6138 188.56 92.9864C189.305 93.359 190.05 93.7316 190.795 94.2905L188.374 96.7123C187.815 95.9671 187.07 95.5945 185.953 95.5945C185.022 95.5945 184.277 95.9671 183.718 96.526C183.16 97.0849 182.787 98.0164 182.787 98.9479C182.787 99.8794 183.16 100.625 183.718 101.37C184.277 101.929 185.022 102.301 185.953 102.301C186.884 102.301 187.815 101.929 188.374 101.183C188.188 100.997 190.795 103.233 190.795 103.233Z" fill="#767676"/>
<path d="M195.64 99.6907C195.826 100.436 196.198 100.995 196.943 101.367C197.502 101.74 198.247 101.926 198.992 101.926C199.923 101.926 200.482 101.74 201.04 101.554C201.599 101.367 202.158 100.995 202.53 100.436L204.765 103.044C203.834 103.789 202.902 104.348 201.971 104.534C201.04 104.907 200.109 104.907 199.364 104.907C198.061 104.907 196.757 104.721 195.826 104.162C194.708 103.603 193.964 102.858 193.405 101.926C192.846 100.995 192.474 99.877 192.474 98.5729C192.474 97.2688 192.846 96.3373 193.405 95.2195C193.964 94.288 194.708 93.5428 195.64 92.984C196.571 92.4251 197.688 92.2388 198.992 92.2388C200.295 92.2388 201.413 92.4251 202.344 92.984C203.275 93.5428 204.02 94.288 204.579 95.2195C205.137 96.151 205.51 97.2688 205.51 98.5729V99.6907C205.323 99.6907 195.64 99.6907 195.64 99.6907ZM201.599 97.8277C201.413 97.0825 201.04 96.5236 200.482 96.151C199.923 95.7784 199.364 95.4058 198.619 95.4058C197.874 95.4058 197.129 95.5921 196.571 96.151C196.012 96.5236 195.64 97.2688 195.453 97.8277H201.599Z" fill="#767676"/>
<path d="M207.566 92.4251H210.919V93.7291C211.477 93.1703 212.036 92.7977 212.781 92.6114C213.526 92.4251 214.271 92.2388 215.016 92.2388C216.133 92.2388 217.25 92.4251 218.181 92.984C219.113 93.5428 219.858 94.288 220.23 95.2195C220.789 96.151 220.975 97.2688 220.975 98.5729C220.975 99.877 220.789 100.995 220.23 101.926C219.671 102.858 218.926 103.603 218.181 104.162C217.25 104.721 216.319 104.907 215.016 104.907C214.271 104.907 213.526 104.721 212.781 104.534C212.036 104.348 211.477 103.975 210.919 103.417V110.868H207.38C207.566 111.055 207.566 92.4251 207.566 92.4251ZM214.271 95.4058C213.34 95.4058 212.595 95.7784 212.036 96.3373C211.477 96.8962 211.105 97.8277 211.105 98.7592C211.105 99.6907 211.477 100.436 212.036 101.181C212.595 101.74 213.34 102.113 214.271 102.113C215.202 102.113 215.947 101.74 216.505 101.181C217.064 100.622 217.437 99.6907 217.437 98.7592C217.437 97.8277 217.064 97.0825 216.505 96.3373C215.947 95.5921 215.202 95.4058 214.271 95.4058Z" fill="#767676"/>
<path d="M222.652 92.4285H224.701V89.2615H228.239V92.4285H231.219V95.5956H228.239V100.067C228.239 100.626 228.425 101.185 228.798 101.371C229.17 101.743 229.729 101.93 230.288 101.93C230.66 101.93 231.219 101.743 231.591 101.557V104.538C230.846 104.91 230.101 104.91 229.356 104.91C227.867 104.91 226.749 104.538 226.004 103.793C225.259 103.047 224.887 101.93 224.887 100.439V95.4093H222.838C222.652 95.5956 222.652 92.4285 222.652 92.4285Z" fill="#767676"/>
<path d="M117.985 91.8671L119.661 90.1905L121.71 92.2397L117.985 95.9657V105.094H114.447V99.5053L112.212 101.555L110.536 99.319L114.261 95.5931V86.0919H117.985C117.985 85.9056 117.985 91.8671 117.985 91.8671Z" fill="#888888"/>
<path d="M243.691 104.537C243.505 104.723 243.319 104.723 242.946 104.723C242.015 105.096 241.084 105.096 240.339 105.096C239.035 105.096 237.732 104.909 236.801 104.35C235.683 103.792 234.938 103.046 234.38 102.115C233.821 101.183 233.449 100.066 233.449 98.7616C233.449 97.4575 233.821 96.526 234.38 95.4082C234.938 94.4768 235.683 93.7316 236.614 93.1727C237.546 92.6138 238.663 92.4275 239.967 92.4275C241.27 92.4275 242.388 92.6138 243.319 93.1727C244.25 93.7316 244.995 94.4768 245.553 95.4082C246.112 96.3397 246.485 97.4575 246.485 98.7616V99.8794H236.801C236.987 100.625 237.359 101.183 238.104 101.556C238.663 101.929 239.408 102.115 240.153 102.115C241.084 102.115 241.643 101.929 242.201 101.742C242.76 101.556 243.319 101.183 243.691 100.625H246.298V107.145H243.691C243.691 106.959 243.691 104.537 243.691 104.537ZM242.574 97.8301C242.387 97.0849 242.015 96.526 241.456 96.1534C240.898 95.7808 240.339 95.4082 239.594 95.4082C238.849 95.4082 238.104 95.5945 237.546 96.1534C236.987 96.526 236.614 97.2712 236.428 97.8301C236.614 97.8301 242.574 97.8301 242.574 97.8301Z" fill="#767676"/>
<path d="M146.112 103.231C145.553 103.789 144.808 104.348 143.877 104.535C143.132 104.907 142.201 105.094 141.083 105.094C139.78 105.094 138.663 104.907 137.545 104.348C136.428 103.789 135.683 103.044 135.124 102.113C134.565 101.181 134.193 100.064 134.193 98.7594C134.193 97.4553 134.565 96.3376 135.124 95.4061C135.683 94.4746 136.614 93.7294 137.545 93.1705C138.663 92.6116 139.78 92.4253 141.083 92.4253C142.015 92.4253 142.946 92.6116 143.877 92.9842C144.622 93.3568 145.367 93.7294 146.112 94.2883L143.691 96.7102C143.132 95.965 142.387 95.5924 141.27 95.5924C140.339 95.5924 139.594 95.965 139.035 96.5239C138.476 97.0828 138.104 98.0142 138.104 98.9457C138.104 99.8772 138.476 100.622 139.035 101.368C139.594 101.926 140.339 102.299 141.27 102.299C142.201 102.299 143.132 101.926 143.691 101.181L146.112 103.231ZM142.946 88.3268L141.27 87.0227L139.221 89.8172L140.897 91.3075L142.946 88.3268Z" fill="#888888"/>
<path fill-rule="evenodd" clip-rule="evenodd" d="M63.6961 70.1811H72.3147C73.4749 70.1811 74.4693 70.6482 75.298 71.2711C76.1267 72.0497 76.4582 72.984 76.4582 74.0741V82.3272H61.873V91.9818C61.873 93.0718 61.3758 94.0061 60.7128 94.7847C59.8841 95.5633 58.8896 95.8747 57.7294 95.8747H48.9452V84.8187C53.9174 77.3442 59.2211 72.8283 63.6961 70.1811ZM62.0387 69.4025C52.26 73.4512 46.6248 79.3685 44.3044 82.3272H38.172C36.0173 82.3272 34.1942 80.6143 34.1942 78.5899V70.1811H48.7794V60.215C48.7794 58.1907 50.6026 56.4778 52.7572 56.4778H61.873V69.4025H62.0387Z" fill="#767676"/>
</g>
</svg>
