<?xml version="1.0" encoding="UTF-8" standalone="no"?><svg width="253" height="116" viewBox="0 0 253 116" fill="none" xmlns="http://www.w3.org/2000/svg">
<g clip-path="url(#clip0)">
<path d="M74.0086 0H83.974V62H74.0086V0ZM118.853 42.222C118.853 51.7105 110.838 52.4669 108.454 52.4669C102.497 52.4669 101.413 46.9166 101.413 43.5686V19.84H91.448V43.519C91.448 49.3966 93.3016 54.2475 96.5503 57.4814C99.4203 60.3409 103.72 61.9033 108.379 61.9033C111.683 61.9033 116.361 60.879 118.853 58.6148V62H128.818V19.84H118.853V42.222ZM148.749 4.96H138.784V19.84H131.31V29.76H138.784V62H148.749V29.76H156.223V19.84H148.749V4.96ZM187.606 49.3942C185.436 51.336 182.571 52.4123 179.427 52.4123C172.496 52.4123 167.407 47.3457 167.407 40.3893C167.407 33.4329 172.335 28.5795 179.427 28.5795C182.517 28.5795 185.436 29.6038 187.661 31.5456L189.173 32.8402L195.893 26.1541L194.211 24.6438C190.257 21.0899 185.008 19.096 179.425 19.096C166.968 19.096 157.922 28.0438 157.922 40.3372C157.922 52.5785 167.185 61.8462 179.425 61.8462C185.113 61.8462 190.417 59.8523 194.321 56.2414L195.945 54.7311L189.121 48.05L187.606 49.3942ZM231.462 23.5154C228.592 20.6584 225.228 19.096 220.569 19.096C217.266 19.096 213.524 20.1202 211.033 22.382V0H201.067V62H211.033V38.7748C211.033 29.2863 217.804 28.5324 220.188 28.5324C226.145 28.5324 225.981 34.0851 225.981 37.4282V62H235.946V37.4802C235.946 31.6026 234.713 26.7518 231.462 23.5154" fill="#E5E5E5"/>
<path d="M179.099 33.3263C181.009 33.3263 182.842 34.0819 184.193 35.427C185.544 36.772 186.304 38.5963 186.304 40.4985C186.304 42.4006 185.544 44.2249 184.193 45.5699C182.842 46.915 181.009 47.6706 179.099 47.6706C177.188 47.6706 175.355 46.915 174.004 45.5699C172.653 44.2249 171.894 42.4006 171.894 40.4985C171.894 38.5963 172.653 36.772 174.004 35.427C175.355 34.0819 177.188 33.3263 179.099 33.3263" fill="#E5E5E5"/>
<path d="M60.0568 46.428C56.2675 50.3092 51.1204 52.4123 45.7042 52.4123C34.6028 52.4123 26.5308 43.7323 26.5308 31.8184C26.5308 19.8499 34.6028 11.1699 45.7042 11.1699C51.0681 11.1699 56.1579 13.2704 60.0045 17.0996L61.5193 18.6099L68.1811 11.9784L66.7187 10.468C61.1954 4.8062 53.7214 1.73596 45.7042 1.73596C29.3485 1.73596 17.0538 14.6741 17.0538 31.8704C17.0538 49.0147 29.4033 61.9008 45.7042 61.9008C53.7762 61.9008 61.2502 58.776 66.7735 53.1141L68.2359 51.6038L61.6289 44.8656L60.0568 46.428Z" fill="#E5E5E5"/>
</g>
<defs>
<clipPath id="clip0">
<rect width="219" height="62" fill="white" transform="translate(17)"/>
</clipPath>
</defs>
</svg>
