<?xml version="1.0" encoding="UTF-8" standalone="no"?><svg width="244" height="56" viewBox="0 0 244 56" fill="none" xmlns="http://www.w3.org/2000/svg">
<g clip-path="url(#clip0_1807_653)">
<path d="M42.7998 22.7H50.9998C57.5998 22.7 62.1998 27.2 62.1998 33V33.0999C62.1998 38.8999 57.6998 43.4 50.9998 43.4H42.7998V22.7V22.7ZM50.9998 39.2C54.7998 39.2 57.2998 36.6999 57.2998 33.0999V33C57.2998 29.4 54.7998 26.7999 50.9998 26.7999H47.4998V39.2H50.9998Z" fill="white"/>
<path d="M66.1997 22.7H82.0997V26.7H70.8997V30.9H80.7997V34.9H70.8997V39.2H82.2997V43.2H66.2997L66.1997 22.7" fill="white"/>
<path d="M84.8999 40.3001L87.6999 37.1001C89.5999 38.6001 91.5999 39.6001 93.9999 39.6001C95.8999 39.6001 96.9999 38.8001 96.9999 37.7001V37.6001C96.9999 36.4001 96.1999 35.8001 92.7999 35.0001C88.5999 33.9001 85.7999 32.8001 85.7999 28.7001V28.6001C85.7999 24.9001 88.7999 22.4001 93.1999 22.4001C96.1999 22.4001 98.8999 23.3001 101 25.0001L98.5999 28.5001C96.7999 27.2001 94.8999 26.5001 93.0999 26.5001C91.2999 26.5001 90.3999 27.3001 90.3999 28.3001V28.2001C90.3999 29.5001 91.2999 30.0001 94.8999 30.9001C99.1999 32.0001 101.5 33.5001 101.5 37.0001V37.1001C101.5 41.2001 98.2999 43.5001 93.7999 43.5001C90.5999 43.5001 87.3999 42.4001 84.8999 40.3001" fill="white"/>
<path d="M105.7 22.7H110.3V43.2999H105.7V22.7" fill="white"/>
<path d="M114.7 33C114.7 27.1 119.3 22.3 125.7 22.3C129.5 22.3 131.7 23.3001 133.9 25.2001L131 28.7001C129.4 27.4001 128 26.6 125.5 26.6C122.1 26.6 119.5 29.5 119.5 33V33.1C119.5 36.9 122.1 39.7001 125.9 39.7001C127.6 39.7001 129.1 39.3001 130.3 38.4001V35.5H125.6V31.6H134.7V40.5C132.5 42.3 129.6 43.8 125.7 43.8C119.1 43.5 114.7 39.1 114.7 33" fill="white"/>
<path d="M139.1 22.7H143.4L153.2 35.2999V22.7H157.7V43.2999H153.8L143.6 30.2V43.2999H139.1V22.7V22.7Z" fill="white"/>
<path d="M162.8 22.7H172.4C175.1 22.7 177.1 23.4999 178.5 24.7999C179.7 25.9999 180.3 27.6 180.3 29.5V29.6C180.3 32.9 178.5 35 175.8 36L180.9 43.2999H175.5L171 36.7H170.9H167.3V43.2999H162.6V22.7H162.8V22.7ZM172.1 32.5999C174.4 32.5999 175.6 31.4 175.6 29.7V29.6C175.6 27.7 174.3 26.7 172 26.7H167.4V32.5999H172.1Z" fill="#666666"/>
<path d="M184.2 34.4V22.6H188.8V34.2C188.8 37.6 190.5 39.2 193.3 39.2C196.1 39.2 197.8 37.5 197.8 34.2V22.5H202.4V34.1C202.4 40.3 198.8 43.4 193.2 43.4C187.6 43.4 184.2 40.4 184.2 34.4" fill="#666666"/>
<path d="M205.7 40.2999L208.5 37.0999C210.4 38.5999 212.4 39.5999 214.8 39.5999C216.7 39.5999 217.8 38.7999 217.8 37.6999V37.5999C217.8 36.3999 217 35.7999 213.6 34.9999C209.4 33.8999 206.6 32.7999 206.6 28.6999V28.5999C206.6 24.8999 209.6 22.3999 214 22.3999C217 22.3999 219.7 23.2999 221.8 24.9999L219.4 28.4999C217.6 27.1999 215.7 26.4999 213.9 26.4999C212.1 26.4999 211.2 27.2999 211.2 28.2999V28.1999C211.2 29.4999 212.1 29.9999 215.7 30.8999C220 31.9999 222.3 33.4999 222.3 36.9999V37.0999C222.3 41.1999 219.1 43.4999 214.6 43.4999C211.5 43.4999 208.2 42.3999 205.7 40.2999" fill="#666666"/>
<path d="M226.3 22.7H230.9V30.9H239.4V22.7H244V43.2999H239.4V35.0999H230.9V43.2999H226.3V22.7" fill="#666666"/>
<path d="M16.4 34.2999C16.3 34.2999 16.3 34.1999 16.4 34.2999L15.9 34L15.8 33.9L4 25.5C4 25.5 3.9 25.5 3.9 25.4L3.7 25.2L3.6 25.1H3.4L0 22.7L6.7 23.7C7 23.7 7.1 23.8 7.4 23.9C7.5 23.9 7.7 24 7.7 24C8 24.1 8.1 24.1999 8.3 24.2999C8.5 24.3999 8.6 24.5 8.8 24.6C8.9 24.7 9.1 24.8 9.1 24.9C9.2 25 9.3 25 9.4 25.1C9.6 25.2 9.7 25.3 9.7 25.4C10 25.7 10.2 26 10.5 26.2L15.8 33.7L15.9 33.7999L16.4 34.2999" fill="#5E5E5E"/>
<path d="M16.4001 45.9L15.9001 45.0999L15.8001 45L0.100098 22.7L3.5001 25.1L4.1001 25.5L15.9001 33.9H16.0001L16.4001 34.2C16.4001 34.2 16.5001 34.1999 16.5001 34.2999L17.0001 33.9L32.9001 22.7L16.9001 45.0999L16.8001 45.2L16.4001 45.9Z" fill="#868686"/>
<path d="M16.3999 30.5001L15.8999 29.7001L15.7999 29.6001L11.8999 24.2001L15.7999 25.0001H15.8999L16.3999 25.1001L16.8999 25.0001L20.6999 24.1001L16.8999 29.7001V29.8001L16.3999 30.5001" fill="#5E5E5E"/>
<path d="M32.9999 22.6001L27.9999 23.3001L26.0999 23.6001C24.5999 23.8001 23.1999 24.6001 22.2999 25.9001L16.9999 33.5001L16.8999 33.6001L16.3999 34.3001L16.9999 33.7001L17.0999 33.6001L16.3999 34.3001L29.8999 24.7001L32.9999 22.6001Z" fill="#5E5E5E"/>
<path d="M18.9001 6.8001C18.9001 11.2001 11.3001 13.5001 11.3001 18.2001C11.2001 19.3001 11.5001 20.4001 12.0001 21.4001C12.0001 21.4001 9.1001 18.6001 9.1001 15.6001C9.1001 12.6001 11.9001 8.1001 11.9001 8.1001C11.9001 10.1001 12.7001 10.7001 13.5001 10.8001H13.6001C14.5001 10.8001 15.0001 10.1001 15.0001 9.1001C15.0001 8.1001 13.9001 7.1001 13.9001 5.1001C13.9001 3.2001 16.3001 0.100098 16.3001 0.100098C18.0001 2.1001 18.9001 4.4001 18.9001 6.8001" fill="#868686"/>
<path d="M16.8001 22.8C14.4001 22.8 12.6001 20.9 12.6001 18.6V18.5C12.6001 13.4 19.7001 12.9 19.7001 6C19.9001 6.3 21.8001 8.9 21.8001 11.7C21.8001 15.2 18.5001 16.1 18.5001 17.8C18.5001 18.5 18.8001 19 19.8001 19C19.9001 19 20.0001 19 20.1001 18.9C22.0001 18.1 23.3001 16.3 23.4001 14.2C23.4001 14.3 24.4001 22.8 16.8001 22.8" fill="#868686"/>
<path d="M19.9 19C20 19 20.1 19 20.2 18.9C19.2 19.2 15.5 20.1 15.5 17.5C15.5 14.3 21 13.6 21 10.9C21 9.2 20.6 7.5 19.7 6C19.9 6.3 21.8 8.9 21.8 11.7C21.8 15.2 18.5 16.1 18.5 17.8C18.6 18.5 19 19 19.9 19" fill="#5D5D5D"/>
<path d="M16.9 8.6001C16.9 11.1001 13.7 10.9001 13.5 10.8001H13.8C14.7 10.8001 15.2 10.1001 15.2 9.1001C15.2 8.1001 14.1 7.1001 14.1 5.1001C14.1 3.2001 16.5 0.100098 16.5 0.100098C15.7 1.4001 15.3 2.8001 15.2 4.2001C15.2 6.5001 16.9 6.7001 16.9 8.6001" fill="#5D5D5D"/>
<path d="M14.8997 52.3001L12.6997 50.8001H15.3997L16.2997 48.1001L17.0997 50.8001H19.7997L17.5997 52.3001L18.3997 54.9001L16.1997 53.3001L13.8997 54.9001L14.8997 52.3001" fill="#E3E3E3"/>
<path d="M26.3997 52.3001L24.1997 50.8001H26.8997L27.7997 48.1001L28.5997 50.8001H31.2997L29.0997 52.3001L29.8997 54.9001L27.6997 53.3001L25.3997 54.9001L26.3997 52.3001Z" fill="#E3E3E3"/>
<path d="M3.4998 52.3001L1.2998 50.8001H3.9998L4.8998 48.1001L5.6998 50.8001H8.3998L6.1998 52.3001L6.9998 54.9001L4.7998 53.3001L2.5998 54.9001L3.4998 52.3001" fill="#E3E3E3"/>
</g>
<defs>
<clipPath id="clip0_1807_653">
<rect width="243.9" height="55.2" fill="white"/>
</clipPath>
</defs>
</svg>
