<?xml version="1.0" encoding="UTF-8" standalone="no"?><svg width="192" height="192" viewBox="0 0 192 192" fill="none" xmlns="http://www.w3.org/2000/svg">
<rect width="192" height="192" fill="black"/>
<path d="M126.922 150.307V139.932C126.922 139.296 126.406 138.78 125.77 138.78H65.8291C65.1925 138.78 64.6764 139.296 64.6764 139.932V150.307C64.6764 150.943 65.1925 151.459 65.8291 151.459H125.77C126.406 151.459 126.922 150.943 126.922 150.307Z" fill="#46A53A"/>
<path d="M164.234 149.835L115.7 41.4815C115.515 41.0669 115.103 40.8 114.648 40.8H99.3738C98.7372 40.8 98.2211 41.3161 98.2211 41.9527C98.2211 42.1166 98.256 42.2786 98.3235 42.4279L147.341 150.782C147.528 151.194 147.939 151.459 148.391 151.459H163.182C163.819 151.459 164.335 150.943 164.335 150.307C164.335 150.144 164.3 149.984 164.234 149.835Z" fill="#FF6F00"/>
<path d="M32.3401 150.731C41.1168 150.731 49.8668 148.941 54.1338 145.382C58.4008 141.823 60.5343 136.342 60.5343 128.941C60.5343 126.271 60.3321 123.42 59.9276 120.387C59.4827 117.636 59.2603 115.068 59.2603 112.682C59.2603 108.273 60.379 106.747 62.3406 104.805C64.3022 102.864 67.5075 101.893 71.9566 101.893H75.0227C75.6593 101.893 76.1754 101.377 76.1754 100.74C76.1754 100.731 76.1753 100.722 76.1751 100.713L76.0654 96.1296L76.1678 92.706C76.1869 92.0697 75.6864 91.5384 75.0501 91.5194C75.0386 91.519 75.0271 91.5188 75.0156 91.5188H71.9566C67.5075 91.5188 64.3022 90.5481 62.3406 88.6068C60.379 86.6654 59.2603 84.754 59.2603 80.3454C59.2603 77.9591 59.4827 75.3908 59.9276 72.6405C60.3321 69.6071 60.5343 66.7557 60.5343 64.0863C60.5343 56.6847 57.9927 49.6475 53.7257 46.1085C49.4587 42.5695 42.9368 40.8 34.1601 40.8H28.9952C28.3586 40.8 27.8425 41.3161 27.8425 41.9527C27.8425 41.9699 27.8429 41.987 27.8436 42.0041L28.1491 48.853C28.1765 49.4675 28.6815 49.9522 29.2966 49.9544L31.1874 49.961C37.2138 49.961 41.6223 51.0935 44.4131 53.3584C47.2038 55.6234 48.5992 59.2432 48.5992 64.2181C48.5992 66.2808 48.397 68.7682 47.9925 71.6803C47.5881 74.7137 47.3858 77.4842 47.3858 79.9918C47.3858 84.6026 48.2959 88.2225 50.1159 90.8515C51.936 93.4804 55.2727 94.6332 58.9128 95.6443V96.1296C55.2727 97.1408 51.936 99.6181 50.1159 102.227C48.2959 104.836 47.3858 108.445 47.3858 113.056C47.3858 115.564 47.5881 118.334 47.9925 121.368C48.397 124.28 48.5992 126.767 48.5992 128.83C48.5992 133.805 46.7957 135.382 44.005 137.668C41.2142 139.953 36.8057 141.095 30.7793 141.095L28.9967 141.089C28.3601 141.087 27.8422 141.601 27.84 142.238C27.8399 142.255 27.8403 142.273 27.841 142.291L28.1514 149.62C28.1775 150.236 28.6836 150.722 29.3002 150.724L32.3401 150.731Z" fill="#FDBF52"/>
</svg>
