<?xml version="1.0" encoding="UTF-8" standalone="no"?><svg width="434" height="63" viewBox="0 0 434 63" fill="none" xmlns="http://www.w3.org/2000/svg">
<path d="M0.5 9.45C0.5 4.50705 4.50705 0.5 9.45 0.5H53.55C58.4929 0.5 62.5 4.50705 62.5 9.45V53.55C62.5 58.4929 58.4929 62.5 53.55 62.5H9.45C4.50705 62.5 0.5 58.4929 0.5 53.55V9.45Z" fill="white" stroke="white"/>
<path d="M28.8226 13.3875H33.7051V49.9275H28.8226V13.3875Z" fill="white"/>
<path d="M28.8226 13.3875H33.7051V49.9275H28.8226V13.3875Z" fill="#111111"/>
<path d="M95 12.648H103.748V50.448H95V12.648Z" fill="white"/>
<path d="M121.899 50.88C119.487 50.88 117.129 50.592 114.825 50.016C112.521 49.404 110.685 48.648 109.317 47.748L112.125 41.7C113.421 42.528 114.987 43.212 116.823 43.752C118.659 44.256 120.459 44.508 122.223 44.508C125.787 44.508 127.569 43.626 127.569 41.862C127.569 41.034 127.083 40.44 126.111 40.08C125.139 39.72 123.645 39.414 121.629 39.162C119.253 38.802 117.291 38.388 115.743 37.92C114.195 37.452 112.845 36.624 111.693 35.436C110.577 34.248 110.019 32.556 110.019 30.36C110.019 28.524 110.541 26.904 111.585 25.5C112.665 24.06 114.213 22.944 116.229 22.152C118.281 21.36 120.693 20.964 123.465 20.964C125.517 20.964 127.551 21.198 129.567 21.666C131.619 22.098 133.311 22.71 134.643 23.502L131.835 29.496C129.279 28.056 126.489 27.336 123.465 27.336C121.665 27.336 120.315 27.588 119.415 28.092C118.515 28.596 118.065 29.244 118.065 30.036C118.065 30.936 118.551 31.566 119.523 31.926C120.495 32.286 122.043 32.628 124.167 32.952C126.543 33.348 128.487 33.78 129.999 34.248C131.511 34.68 132.825 35.49 133.941 36.678C135.057 37.866 135.615 39.522 135.615 41.646C135.615 43.446 135.075 45.048 133.995 46.452C132.915 47.856 131.331 48.954 129.243 49.746C127.191 50.502 124.743 50.88 121.899 50.88Z" fill="white"/>
<path d="M169.27 36.03C169.27 36.138 169.216 36.894 169.108 38.298H147.13C147.526 40.098 148.462 41.52 149.938 42.564C151.414 43.608 153.25 44.13 155.446 44.13C156.958 44.13 158.29 43.914 159.442 43.482C160.63 43.014 161.728 42.294 162.736 41.322L167.218 46.182C164.482 49.314 160.486 50.88 155.23 50.88C151.954 50.88 149.056 50.25 146.536 48.99C144.016 47.694 142.072 45.912 140.704 43.644C139.336 41.376 138.652 38.802 138.652 35.922C138.652 33.078 139.318 30.522 140.65 28.254C142.018 25.95 143.872 24.168 146.212 22.908C148.588 21.612 151.234 20.964 154.15 20.964C156.994 20.964 159.568 21.576 161.872 22.8C164.176 24.024 165.976 25.788 167.272 28.092C168.604 30.36 169.27 33.006 169.27 36.03ZM154.204 27.336C152.296 27.336 150.694 27.876 149.398 28.956C148.102 30.036 147.31 31.512 147.022 33.384H161.332C161.044 31.548 160.252 30.09 158.956 29.01C157.66 27.894 156.076 27.336 154.204 27.336Z" fill="white"/>
<path d="M192.537 20.964C196.137 20.964 199.035 22.044 201.231 24.204C203.463 26.364 204.579 29.568 204.579 33.816V50.448H196.155V35.112C196.155 32.808 195.651 31.098 194.643 29.982C193.635 28.83 192.177 28.254 190.269 28.254C188.145 28.254 186.453 28.92 185.193 30.252C183.933 31.548 183.303 33.492 183.303 36.084V50.448H174.879V21.396H182.925V24.798C184.041 23.574 185.427 22.638 187.083 21.99C188.739 21.306 190.557 20.964 192.537 20.964Z" fill="white"/>
<path d="M226.355 50.88C223.295 50.88 220.541 50.25 218.093 48.99C215.681 47.694 213.791 45.912 212.423 43.644C211.055 41.376 210.371 38.802 210.371 35.922C210.371 33.042 211.055 30.468 212.423 28.2C213.791 25.932 215.681 24.168 218.093 22.908C220.541 21.612 223.295 20.964 226.355 20.964C229.415 20.964 232.151 21.612 234.563 22.908C236.975 24.168 238.865 25.932 240.233 28.2C241.601 30.468 242.285 33.042 242.285 35.922C242.285 38.802 241.601 41.376 240.233 43.644C238.865 45.912 236.975 47.694 234.563 48.99C232.151 50.25 229.415 50.88 226.355 50.88ZM226.355 43.968C228.515 43.968 230.279 43.248 231.647 41.808C233.051 40.332 233.753 38.37 233.753 35.922C233.753 33.474 233.051 31.53 231.647 30.09C230.279 28.614 228.515 27.876 226.355 27.876C224.195 27.876 222.413 28.614 221.009 30.09C219.605 31.53 218.903 33.474 218.903 35.922C218.903 38.37 219.605 40.332 221.009 41.808C222.413 43.248 224.195 43.968 226.355 43.968Z" fill="white"/>
<path d="M289.345 30.954H297.337V46.29C295.285 47.838 292.909 49.026 290.209 49.854C287.509 50.682 284.791 51.096 282.055 51.096C278.131 51.096 274.603 50.268 271.471 48.612C268.339 46.92 265.873 44.598 264.073 41.646C262.309 38.658 261.427 35.292 261.427 31.548C261.427 27.804 262.309 24.456 264.073 21.504C265.873 18.516 268.357 16.194 271.525 14.538C274.693 12.846 278.257 12 282.217 12C285.529 12 288.535 12.558 291.235 13.674C293.935 14.79 296.203 16.41 298.039 18.534L292.423 23.718C289.723 20.874 286.465 19.452 282.649 19.452C280.237 19.452 278.095 19.956 276.223 20.964C274.351 21.972 272.893 23.394 271.849 25.23C270.805 27.066 270.283 29.172 270.283 31.548C270.283 33.888 270.805 35.976 271.849 37.812C272.893 39.648 274.333 41.088 276.169 42.132C278.041 43.14 280.165 43.644 282.541 43.644C285.061 43.644 287.329 43.104 289.345 42.024V30.954Z" fill="white"/>
<path d="M312.915 25.23C313.923 23.826 315.273 22.764 316.965 22.044C318.693 21.324 320.673 20.964 322.905 20.964V28.74C321.969 28.668 321.339 28.632 321.015 28.632C318.603 28.632 316.713 29.316 315.345 30.684C313.977 32.016 313.293 34.032 313.293 36.732V50.448H304.869V21.396H312.915V25.23Z" fill="white"/>
<path d="M341.474 50.88C338.414 50.88 335.66 50.25 333.212 48.99C330.8 47.694 328.91 45.912 327.542 43.644C326.174 41.376 325.49 38.802 325.49 35.922C325.49 33.042 326.174 30.468 327.542 28.2C328.91 25.932 330.8 24.168 333.212 22.908C335.66 21.612 338.414 20.964 341.474 20.964C344.534 20.964 347.27 21.612 349.682 22.908C352.094 24.168 353.984 25.932 355.352 28.2C356.72 30.468 357.404 33.042 357.404 35.922C357.404 38.802 356.72 41.376 355.352 43.644C353.984 45.912 352.094 47.694 349.682 48.99C347.27 50.25 344.534 50.88 341.474 50.88ZM341.474 43.968C343.634 43.968 345.398 43.248 346.766 41.808C348.17 40.332 348.872 38.37 348.872 35.922C348.872 33.474 348.17 31.53 346.766 30.09C345.398 28.614 343.634 27.876 341.474 27.876C339.314 27.876 337.532 28.614 336.128 30.09C334.724 31.53 334.022 33.474 334.022 35.922C334.022 38.37 334.724 40.332 336.128 41.808C337.532 43.248 339.314 43.968 341.474 43.968Z" fill="white"/>
<path d="M392.303 21.396V50.448H384.311V46.992C383.195 48.252 381.863 49.224 380.315 49.908C378.767 50.556 377.093 50.88 375.293 50.88C371.477 50.88 368.453 49.782 366.221 47.586C363.989 45.39 362.873 42.132 362.873 37.812V21.396H371.297V36.57C371.297 41.25 373.259 43.59 377.183 43.59C379.199 43.59 380.819 42.942 382.043 41.646C383.267 40.314 383.879 38.352 383.879 35.76V21.396H392.303Z" fill="white"/>
<path d="M417.279 20.964C419.979 20.964 422.427 21.594 424.623 22.854C426.855 24.078 428.601 25.824 429.861 28.092C431.121 30.324 431.751 32.934 431.751 35.922C431.751 38.91 431.121 41.538 429.861 43.806C428.601 46.038 426.855 47.784 424.623 49.044C422.427 50.268 419.979 50.88 417.279 50.88C413.571 50.88 410.655 49.71 408.531 47.37V60.924H400.107V21.396H408.153V24.744C410.241 22.224 413.283 20.964 417.279 20.964ZM415.821 43.968C417.981 43.968 419.745 43.248 421.113 41.808C422.517 40.332 423.219 38.37 423.219 35.922C423.219 33.474 422.517 31.53 421.113 30.09C419.745 28.614 417.981 27.876 415.821 27.876C413.661 27.876 411.879 28.614 410.475 30.09C409.107 31.53 408.423 33.474 408.423 35.922C408.423 38.37 409.107 40.332 410.475 41.808C411.879 43.248 413.661 43.968 415.821 43.968Z" fill="white"/>
</svg>
