<?xml version="1.0" encoding="UTF-8" standalone="no"?><svg width="283" height="72" viewBox="0 0 283 72" fill="none" xmlns="http://www.w3.org/2000/svg">
<g clip-path="url(#clip0_4887_1171)">
<path d="M279.606 60.1494C278.508 61.2448 276.611 61.9419 274.615 61.9419C271.92 61.9419 269.724 59.5519 269.724 56.166V30.6722H281.004V20.9129H269.724V7.26971H258.344V57.6598C258.344 66.0249 264.134 72 272.419 72C276.312 72 280.405 70.4067 283.2 68.0166L279.606 60.1494Z" fill="white"/>
<path d="M23.9577 40.7303C16.2713 38.4398 13.1767 37.5436 13.1767 34.2573C13.1767 30.7718 16.6705 28.7801 21.1626 28.7801C25.7545 28.7801 30.9453 30.6722 35.637 33.6597L40.2289 25.6929C34.8384 22.1079 27.9506 19.7178 21.1626 19.7178C9.98236 19.8174 2.29594 26.1909 2.29594 35.4523C2.29594 44.5145 9.18377 47.5021 19.9647 50.39C25.9541 51.9834 30.6459 53.278 30.6459 57.2614C30.6459 60.7469 27.4515 62.9377 22.1608 62.9377C16.6705 62.9377 10.3817 60.7469 4.99118 56.8631L0 64.6307C5.98942 69.4108 14.2748 72.0996 21.9612 72.0996C33.5407 72.0996 41.6265 65.9253 41.6265 56.2655C41.6265 45.9087 32.4427 43.1203 23.9577 40.7303Z" fill="white"/>
<path d="M199.749 13.444C203.442 13.444 206.337 10.2573 206.337 6.6722C206.337 3.08714 203.442 0 199.749 0C195.956 0 192.961 3.08714 192.961 6.6722C192.961 10.2573 195.956 13.444 199.749 13.444Z" fill="white"/>
<path d="M205.639 20.9129H193.859V70.805H205.639V20.9129Z" fill="white"/>
<path d="M183.475 3.38589H171.695V70.9046H183.475V3.38589Z" fill="white"/>
<path d="M158.618 62.0415C155.923 62.0415 153.727 59.6515 153.727 56.2656V30.6722H165.007V20.9129H153.727V7.26971H147.238C147.238 10.7552 146.14 13.9419 144.343 16.332C142.347 19.0208 139.352 20.8133 136.058 20.8133H134.461L132.664 30.7718H142.247V57.7593C142.247 66.1245 148.037 72.0996 156.322 72.0996C160.215 72.0996 164.308 70.5062 167.103 68.1162L163.709 60.1494C162.511 61.2448 160.615 62.0415 158.618 62.0415Z" fill="white"/>
<path d="M114.197 31.4689V20.9129H102.418V70.805H114.197V46.7054C114.197 37.2448 119.687 30.7718 129.271 30.7718L131.167 20.9129C120.386 20.8133 117.392 24.9959 114.197 31.4689Z" fill="white"/>
<path d="M70.675 19.8174C55.9011 19.8174 43.7227 31.4689 43.7227 45.9087C43.7227 60.3485 55.8013 72.0996 70.675 72.0996C85.3491 72.0996 97.4278 60.3485 97.4278 45.9087C97.4278 31.4689 85.3491 19.8174 70.675 19.8174ZM70.675 62.0415C62.2899 62.0415 55.402 54.7718 55.402 45.9087C55.402 37.0456 62.2899 29.8755 70.675 29.8755C78.9604 29.8755 85.7484 37.0456 85.7484 45.9087C85.7484 54.7718 78.9604 62.0415 70.675 62.0415Z" fill="white"/>
<path d="M235.782 40.7303C228.095 38.4398 225.001 37.5436 225.001 34.2573C225.001 30.7718 228.495 28.7801 232.987 28.7801C237.579 28.7801 242.77 30.6722 247.461 33.6597L252.053 25.6929C246.663 22.1079 239.775 19.7178 232.987 19.7178C221.807 19.7178 214.12 26.0913 214.12 35.3527C214.12 44.4149 221.008 47.4025 231.789 50.2904C237.778 51.8838 242.47 53.1784 242.47 57.1618C242.47 60.6473 239.276 62.8382 233.985 62.8382C228.495 62.8382 222.206 60.6473 216.815 56.7635L211.824 64.5311C217.814 69.3112 226.099 72 233.785 72C245.365 72 253.451 65.8257 253.451 56.166C253.451 45.9087 244.267 43.1203 235.782 40.7303Z" fill="white"/>
</g>
<defs>
<clipPath id="clip0_4887_1171">
<rect width="283" height="72" fill="white"/>
</clipPath>
</defs>
</svg>
