<?xml version="1.0" encoding="UTF-8" standalone="no"?><svg width="391" height="57" viewBox="0 0 391 57" fill="none" xmlns="http://www.w3.org/2000/svg">
<path d="M75.7848 28.6513H69.7317V24.6159L76.0874 24.394L76.6726 18.1593H81.1115V24.4142H91.543V28.6513H81.172V38.074C81.0017 39.6032 81.4202 41.1399 82.3423 42.3717C82.8914 42.8527 83.5316 43.2185 84.2248 43.4472C84.918 43.676 85.6502 43.7631 86.3777 43.7034C87.2988 43.7071 88.218 43.6192 89.1218 43.4411C89.918 43.2712 90.7004 43.0419 91.4623 42.7551L92.451 46.6896C91.3384 47.0535 90.2068 47.3566 89.0612 47.5975C87.7324 47.8625 86.3809 47.9977 85.0258 48.0011C83.5494 47.9976 82.086 47.7241 80.708 47.194C79.5941 46.7705 78.6027 46.0772 77.8227 45.1763C77.0748 44.2696 76.5373 43.2084 76.2489 42.069C75.91 40.7508 75.7405 39.3947 75.7444 38.0336L75.7848 28.6513Z" fill="white"/>
<path d="M96.8496 35.8951C96.8292 34.1616 97.1729 32.4432 97.8584 30.8508C98.4876 29.4284 99.385 28.1405 100.502 27.0576C101.571 26.0084 102.85 25.1971 104.255 24.6767C107.124 23.5677 110.303 23.5677 113.173 24.6767C114.439 25.1496 115.585 25.8955 116.53 26.8615C117.475 27.8274 118.196 28.9897 118.641 30.2657C119.25 32.1453 119.463 34.1308 119.266 36.0969C119.294 36.4609 119.239 36.8265 119.105 37.1662H102.418C102.477 38.1114 102.729 39.0345 103.159 39.878C103.59 40.7215 104.189 41.4674 104.92 42.0693C106.413 43.2207 108.262 43.8132 110.146 43.7439C111.275 43.7659 112.4 43.6023 113.475 43.2597C114.564 42.9152 115.612 42.4553 116.603 41.8877L118.419 45.237C117.118 46.0455 115.722 46.6894 114.262 47.1539C112.713 47.6633 111.091 47.9155 109.46 47.9004C107.791 47.9263 106.13 47.6529 104.557 47.0933C103.09 46.6017 101.742 45.8094 100.599 44.7671C99.4564 43.7248 98.5434 42.4555 97.9189 41.0402C97.19 39.4242 96.825 37.6677 96.8496 35.8951ZM114.323 33.8774C114.425 32.3161 113.919 30.7759 112.91 29.5797C112.373 29.0328 111.723 28.6102 111.005 28.3418C110.286 28.0734 109.518 27.9656 108.754 28.0261C107.991 28.0221 107.233 28.1519 106.514 28.4094C105.777 28.6468 105.092 29.0236 104.497 29.5192C103.221 30.6349 102.413 32.1916 102.237 33.8774H114.323Z" fill="white"/>
<path d="M124.492 35.9151C124.473 34.156 124.838 32.414 125.561 30.8103C126.228 29.3683 127.19 28.0827 128.386 27.0372C129.601 25.9819 131.014 25.1793 132.543 24.6765C134.148 24.131 135.831 23.8516 137.526 23.8492C139.221 23.8299 140.902 24.1525 142.47 24.7975C143.785 25.3417 144.994 26.1135 146.041 27.0775L143.458 30.4269C142.626 29.7649 141.71 29.2154 140.734 28.7926C139.31 28.2376 137.76 28.0853 136.255 28.3522C134.749 28.6191 133.347 29.295 132.2 30.3059C131.479 31.041 130.917 31.9165 130.549 32.878C130.181 33.8395 130.015 34.8664 130.061 35.8949C130.047 36.9705 130.238 38.0389 130.626 39.0425C130.986 39.9393 131.521 40.7555 132.2 41.4436C132.89 42.1099 133.706 42.6313 134.601 42.977C135.59 43.3386 136.635 43.523 137.688 43.5218C138.912 43.5395 140.125 43.2845 141.239 42.7752C142.285 42.2979 143.274 41.7021 144.185 40.9997L146.465 44.3894C145.177 45.5228 143.684 46.3994 142.066 46.9721C140.492 47.5322 138.834 47.8254 137.163 47.8397C135.456 47.846 133.759 47.5734 132.139 47.0326C130.65 46.5418 129.277 45.7522 128.104 44.7122C126.949 43.6577 126.04 42.3629 125.44 40.919C124.776 39.308 124.453 37.5766 124.492 35.8344V35.9151Z" fill="white"/>
<path d="M152.013 14.3663H157.381V22.8608L157.038 27.7638C158.112 26.6926 159.319 25.7636 160.629 24.9996C162.04 24.192 163.645 23.7872 165.27 23.8293C166.372 23.7274 167.483 23.8924 168.509 24.3103C169.534 24.7282 170.444 25.3868 171.161 26.2304C172.534 28.2592 173.194 30.6864 173.038 33.1309V47.2548H167.61V33.8371C167.709 32.4244 167.371 31.0156 166.642 29.8017C166.232 29.3338 165.715 28.972 165.136 28.7472C164.556 28.5223 163.93 28.441 163.313 28.5104C162.264 28.4955 161.231 28.7676 160.326 29.2973C159.253 29.9704 158.264 30.7697 157.381 31.6781V47.3355H152.013V14.3663Z" fill="white"/>
<path d="M181.351 24.4143H185.79L186.254 29.5997H186.395C187.451 27.8411 188.919 26.366 190.673 25.302C192.331 24.3146 194.23 23.8049 196.161 23.8291C196.965 23.8253 197.769 23.8928 198.562 24.0309C199.261 24.191 199.939 24.4349 200.579 24.7573L199.449 29.2971C198.788 29.0755 198.115 28.8936 197.432 28.7523C196.719 28.6276 195.996 28.5736 195.273 28.5909C193.651 28.6106 192.066 29.0784 190.693 29.9428C188.96 31.1389 187.569 32.7662 186.657 34.6642V47.3151H181.331L181.351 24.4143Z" fill="white"/>
<path d="M205.26 35.8951C205.24 34.1616 205.584 32.4432 206.269 30.8508C206.899 29.4284 207.796 28.1405 208.913 27.0576C209.982 26.0084 211.261 25.1971 212.665 24.6767C215.535 23.5677 218.714 23.5677 221.584 24.6767C222.838 25.157 223.973 25.9062 224.907 26.8718C225.841 27.8374 226.552 28.9958 226.991 30.2657C227.601 32.1453 227.814 34.1308 227.617 36.0969C227.644 36.4609 227.589 36.8265 227.455 37.1662H210.769C210.838 38.0955 211.093 39.0013 211.519 39.8298C211.946 40.6583 212.534 41.3925 213.251 41.9885C214.743 43.14 216.592 43.7325 218.476 43.6632C219.605 43.6852 220.73 43.5216 221.806 43.179C222.894 42.8345 223.943 42.3746 224.933 41.8069L226.749 45.1563C225.448 45.9648 224.052 46.6087 222.593 47.0731C221.043 47.5826 219.421 47.8348 217.79 47.8197C216.121 47.8455 214.46 47.5722 212.887 47.0126C211.421 46.521 210.073 45.7287 208.93 44.6864C207.787 43.6441 206.874 42.3748 206.249 40.9595C205.559 39.362 205.222 37.6347 205.26 35.8951ZM222.734 33.8774C222.836 32.3161 222.33 30.7759 221.321 29.5797C220.784 29.0328 220.134 28.6102 219.415 28.3418C218.697 28.0734 217.929 27.9656 217.165 28.0261C216.402 28.0221 215.644 28.1519 214.925 28.4094C214.188 28.6468 213.503 29.0236 212.908 29.5192C212.32 30.0389 211.822 30.6526 211.435 31.3351C211.013 32.1177 210.746 32.9739 210.648 33.8572L222.734 33.8774Z" fill="white"/>
<path d="M231.37 24.4144H236.797L241.236 36.3188C241.68 37.4487 242.063 38.5988 242.427 39.7489L243.516 43.2193H243.698L244.808 39.7489C245.171 38.5988 245.574 37.4689 245.998 36.3188L250.437 24.4144H255.582L246.664 47.3556H240.611L231.37 24.4144Z" fill="white"/>
<path d="M260.465 24.4144H275.779V47.3355H270.372V28.6516H260.424L260.465 24.4144ZM272.712 20.379C271.706 20.4031 270.728 20.0505 269.968 19.3903C269.608 19.058 269.323 18.6513 269.135 18.1985C268.947 17.7456 268.86 17.2573 268.879 16.7673C268.861 16.2745 268.949 15.7835 269.137 15.3276C269.325 14.8716 269.608 14.4613 269.968 14.1241C270.738 13.4806 271.709 13.128 272.712 13.128C273.715 13.128 274.687 13.4806 275.456 14.1241C275.813 14.4631 276.092 14.8742 276.277 15.3301C276.461 15.786 276.546 16.276 276.526 16.7673C276.553 17.2564 276.471 17.7454 276.286 18.199C276.101 18.6527 275.818 19.0595 275.456 19.3903C274.692 20.0553 273.705 20.4082 272.692 20.379H272.712Z" fill="white"/>
<path d="M286.513 35.915C286.493 34.1815 286.837 32.463 287.522 30.8707C288.144 29.4383 289.042 28.1424 290.165 27.0573C291.238 26.0124 292.516 25.2016 293.918 24.6764C295.307 24.1309 296.785 23.8503 298.276 23.8491C299.842 23.8261 301.398 24.107 302.857 24.6764C304.109 25.185 305.243 25.9476 306.186 26.916C307.092 27.9046 307.78 29.0734 308.204 30.3461C308.68 31.7634 308.918 33.2496 308.91 34.7447V36.1975C308.876 36.5566 308.822 36.9136 308.748 37.2668H292.062C292.132 38.1972 292.391 39.1034 292.825 39.9294C293.259 40.7554 293.858 41.4836 294.584 42.069C296.082 43.2127 297.926 43.8107 299.81 43.7638C300.931 43.7657 302.046 43.6025 303.119 43.2796C304.21 42.9162 305.264 42.45 306.267 41.8874L308.083 45.2569C306.782 46.0654 305.386 46.7093 303.926 47.1737C302.374 47.6733 300.754 47.9252 299.124 47.9203C297.456 47.9263 295.799 47.6535 294.221 47.1132C292.73 46.6078 291.357 45.8046 290.186 44.7525C289.036 43.7017 288.127 42.4145 287.522 40.9794C286.817 39.386 286.473 37.6568 286.513 35.915V35.915ZM303.966 33.8973C304.074 32.3387 303.575 30.7988 302.574 29.5996C302.037 29.0526 301.386 28.6301 300.668 28.3617C299.95 28.0932 299.182 27.9855 298.418 28.046C297.655 28.042 296.897 28.1718 296.178 28.4293C295.441 28.6667 294.756 29.0434 294.16 29.5391C293.572 30.0588 293.075 30.6725 292.687 31.355C292.266 32.1376 291.999 32.9938 291.901 33.8771L303.966 33.8973Z" fill="white"/>
<path d="M310.948 24.4144H316.335L318.352 36.3188C318.541 37.4084 318.702 38.4979 318.837 39.5875C318.978 40.677 319.119 41.7666 319.281 42.8965H319.462C319.624 41.7868 319.805 40.677 319.987 39.5875C320.168 38.4979 320.39 37.4084 320.632 36.3188L322.832 26.6338H326.867L329.087 36.3188C329.329 37.4084 329.551 38.4979 329.732 39.5875C329.914 40.677 330.116 41.7666 330.297 42.8965H330.499C330.681 41.7868 330.842 40.677 330.983 39.5875C331.124 38.4979 331.266 37.4084 331.427 36.3188L333.445 24.4144H338.449L334.191 47.3354H327.836L325.818 37.7715C325.636 36.682 325.455 35.5924 325.293 34.523C325.132 33.4537 324.93 32.3036 324.728 31.093H324.527C324.365 32.0009 324.224 32.9694 324.083 33.9984C323.941 35.0275 323.76 36.3188 323.518 37.8119L321.5 47.3354H315.286L310.948 24.4144Z" fill="white"/>
<path d="M340.709 35.9152C340.688 34.1817 341.032 32.4632 341.718 30.8709C342.339 29.4384 343.238 28.1426 344.361 27.0575C345.438 26.0189 346.715 25.209 348.114 24.6766C350.991 23.5739 354.175 23.5739 357.052 24.6766C358.305 25.1852 359.438 25.9477 360.381 26.9162C361.288 27.9047 361.975 29.0736 362.399 30.3463C362.885 31.7612 363.123 33.2491 363.105 34.7449V36.1976C363.086 36.5599 363.025 36.9188 362.924 37.267H346.237C346.299 38.1949 346.552 39.1 346.979 39.9261C347.406 40.7523 347.998 41.4817 348.719 42.0691C350.217 43.2129 352.061 43.8108 353.945 43.764C355.067 43.7689 356.184 43.5988 357.254 43.2596C358.347 42.9114 359.402 42.4517 360.401 41.8875L362.217 45.2571C360.906 46.0458 359.512 46.6886 358.061 47.1739C356.507 47.6637 354.888 47.9154 353.259 47.9205C351.584 47.9249 349.921 47.6522 348.336 47.1134C346.848 46.6 345.477 45.7977 344.3 44.7527C343.151 43.7018 342.242 42.4147 341.637 40.9796C340.978 39.3744 340.662 37.6495 340.709 35.9152V35.9152ZM358.182 33.8975C358.284 32.3362 357.778 30.7959 356.77 29.5998C356.232 29.0528 355.582 28.6303 354.864 28.3618C354.146 28.0934 353.377 27.9857 352.613 28.0461C351.85 28.0422 351.092 28.172 350.373 28.4295C349.636 28.6669 348.951 29.0436 348.356 29.5392C347.768 30.059 347.27 30.6726 346.883 31.3552C346.461 32.1377 346.194 32.9939 346.096 33.8773L358.182 33.8975Z" fill="white"/>
<path d="M370.974 24.4144H375.413L375.877 29.5999H376.018C377.08 27.8457 378.547 26.3719 380.296 25.3022C381.963 24.3353 383.857 23.8271 385.784 23.8293C386.595 23.8263 387.406 23.8938 388.205 24.031C388.905 24.1911 389.582 24.435 390.223 24.7574L389.113 29.2972C388.452 29.0756 387.778 28.8937 387.096 28.7525C386.376 28.6285 385.646 28.5744 384.916 28.591C383.294 28.6107 381.709 29.0786 380.336 29.9429C378.582 31.1145 377.185 32.7485 376.301 34.6643V47.3153H370.873L370.974 24.4144Z" fill="white"/>
<path d="M29.9628 0L39.2241 18.7646L59.9257 21.771L44.9342 36.3186L48.4248 57L29.9023 47.2545L11.4404 56.9798L14.9713 36.3186L0 21.771L20.7016 18.7646L29.9628 0Z" fill="white"/>
</svg>
