<?xml version="1.0" encoding="UTF-8" standalone="no"?><svg width="253" height="112" viewBox="0 0 253 112" fill="none" xmlns="http://www.w3.org/2000/svg">
<g clip-path="url(#clip0)">
<path fill-rule="evenodd" clip-rule="evenodd" d="M141.586 53.6182H138.871L131.528 70.4159H134.534L136.249 66.3901H144.137L145.831 70.4159H148.957L141.586 53.6182ZM143.06 63.789H137.319L140.154 57.1195L143.06 63.789Z" fill="#E5E5E5"/>
<path fill-rule="evenodd" clip-rule="evenodd" d="M231.713 56.4531H237V53.7385H223.47V56.4531H228.757V70.4158H231.713V56.4531Z" fill="#E5E5E5"/>
<path fill-rule="evenodd" clip-rule="evenodd" d="M212.221 58.1189C212.221 57.8439 212.286 57.5726 212.409 57.3265C212.532 57.0805 212.71 56.8665 212.93 56.7014C213.509 56.2818 214.215 56.0764 214.929 56.1202C215.704 56.1227 216.471 56.2718 217.19 56.5597C217.995 56.887 218.755 57.3157 219.451 57.8354L221.024 55.617C220.198 54.9523 219.269 54.4257 218.274 54.0577C217.214 53.6852 216.096 53.5029 214.972 53.5191C214.197 53.5118 213.427 53.6291 212.689 53.8663C212.031 54.0744 211.422 54.4118 210.896 54.8586C210.404 55.2845 210.005 55.8083 209.727 56.3966C209.438 57.0203 209.292 57.7009 209.301 58.3883C209.282 59.0662 209.407 59.7405 209.67 60.3657C209.911 60.9171 210.281 61.403 210.747 61.7833C211.272 62.1936 211.861 62.5144 212.491 62.733C213.269 63.0182 214.065 63.2549 214.872 63.4418C215.652 63.6332 216.29 63.8174 216.772 63.9875C217.177 64.1235 217.563 64.3117 217.92 64.5475C218.167 64.7086 218.366 64.934 218.494 65.1995C218.601 65.4553 218.654 65.7303 218.65 66.0075C218.659 66.3128 218.59 66.6154 218.45 66.8868C218.309 67.1582 218.103 67.3897 217.849 67.5597C217.217 67.9663 216.474 68.1669 215.723 68.1338C214.748 68.1539 213.781 67.9629 212.888 67.5739C211.992 67.1433 211.163 66.5846 210.428 65.9154L208.663 68.0417C209.614 68.9156 210.723 69.5989 211.931 70.0546C213.113 70.4914 214.364 70.7122 215.624 70.7066C216.439 70.7155 217.251 70.6032 218.033 70.3735C218.716 70.1752 219.352 69.8427 219.905 69.3954C220.423 68.968 220.839 68.4305 221.124 67.822C221.425 67.1543 221.575 66.4282 221.563 65.6957C221.577 65.0708 221.458 64.4501 221.216 63.8741C220.981 63.352 220.635 62.8875 220.202 62.5133C219.7 62.0897 219.13 61.7542 218.515 61.521C217.757 61.2349 216.98 60.9981 216.191 60.8123C215.39 60.6209 214.738 60.4366 214.22 60.2665C213.79 60.1315 213.379 59.9383 213.001 59.6924C212.743 59.5275 212.533 59.2977 212.392 59.0262C212.266 58.7409 212.207 58.4304 212.221 58.1189V58.1189Z" fill="#E5E5E5"/>
<path fill-rule="evenodd" clip-rule="evenodd" d="M206.14 53.7385H193.794V70.4158H206.261V67.7721H196.707V63.314H205.07V60.6703H196.707V56.3822H206.14V53.7385Z" fill="#E5E5E5"/>
<path fill-rule="evenodd" clip-rule="evenodd" d="M190.554 53.7385H178.165V70.4158H181.071V63.6258H189.484V60.9821H181.071V56.3822H190.554V53.7385Z" fill="#E5E5E5"/>
<path d="M173.686 53.7385H170.78V70.4229H173.686V53.7385Z" fill="#E5E5E5"/>
<path fill-rule="evenodd" clip-rule="evenodd" d="M163.416 65.2702L154.5 53.7385H151.785V70.4158H154.691V58.5511L163.869 70.4158H166.322V53.7385H163.416V65.2702Z" fill="#E5E5E5"/>
<path fill-rule="evenodd" clip-rule="evenodd" d="M125.759 58.4518V70.4158H128.672V53.7385H125.546L120.472 61.62L115.397 53.7385H112.271V70.4158H115.177V58.5014L120.401 66.3191H120.493L125.759 58.4518Z" fill="#E5E5E5"/>
<path fill-rule="evenodd" clip-rule="evenodd" d="M101.505 53.7385H89.1583V70.4158H101.618V67.7721H92.0643V63.314H100.428V60.6703H92.0643V56.3822H101.505V53.7385Z" fill="#E5E5E5"/>
<path fill-rule="evenodd" clip-rule="evenodd" d="M81.9572 63.3848V70.4158H84.8702V53.7385H81.9572V60.6703H73.9552V53.7385H71.0493V70.4158H73.9552V63.3848H81.9572Z" fill="#E5E5E5"/>
<path fill-rule="evenodd" clip-rule="evenodd" d="M62.6575 56.4531H67.9449V53.7385H54.4145V56.4531H59.7019V70.4158H62.6575V56.4531Z" fill="#E5E5E5"/>
<path fill-rule="evenodd" clip-rule="evenodd" d="M125.787 75.1293V109.15H31.6985V99.681H114.681V75.1293H111.888V96.8955H31.6985V15.0329H111.881V49.0538H114.674V15.0329H125.78V49.0538H128.573V12.2404H114.681V0H15V99.681H28.8989V111.914H128.58V75.1293H125.787ZM28.8989 96.8814H17.7925V2.79963H111.881V12.2404H28.8989V96.8814Z" fill="#E5E5E5"/>
</g>
<defs>
<clipPath id="clip0">
<rect width="253" height="111.589" fill="white"/>
</clipPath>
</defs>
</svg>
