<?xml version="1.0" encoding="UTF-8" standalone="no"?><svg width="253" height="166" viewBox="0 0 253 166" fill="none" xmlns="http://www.w3.org/2000/svg">
<g clip-path="url(#clip0)">
<path d="M15 95.948H43.9582V125.437H15L23.271 111.025L15 95.948Z" fill="#333333"/>
<path d="M19.8329 98.6821H43.9582V122.684H19.8329L26.709 111.025L19.8329 98.6821Z" stroke="white"/>
<path d="M237 95.948H208.042V125.437H237L228.729 111.025L237 95.948Z" fill="#333333"/>
<path d="M232.167 98.6821H208.042V122.684H232.167L225.291 111.025L232.167 98.6821Z" stroke="white"/>
<path d="M125.489 0L37.1607 43.8631V120.614L125.489 164.477L213.798 120.614V43.8631L125.489 0Z" fill="#666666"/>
<path d="M125.116 6.65955L44.0761 46.9683V117.508L125.116 157.817L206.175 117.508V46.9683L125.116 6.65955Z" stroke="white"/>
<path d="M125.312 80.8713C136.738 80.8713 146 71.6642 146 60.3068C146 48.9493 136.738 39.7423 125.312 39.7423C113.887 39.7423 104.625 48.9493 104.625 60.3068C104.625 71.6642 113.887 80.8713 125.312 80.8713Z" fill="white"/>
<path d="M125.312 74.0165C132.929 74.0165 139.104 67.8784 139.104 60.3068C139.104 52.7352 132.929 46.5972 125.312 46.5972C117.695 46.5972 111.521 52.7352 111.521 60.3068C111.521 67.8784 117.695 74.0165 125.312 74.0165Z" fill="#666666"/>
<path d="M92.8768 81.1251H84.704V49.0969H74.2523V42.2225H103.328V49.0969H92.8768V81.1251V81.1251ZM160.754 60.5411H163.465C165.999 60.5411 167.885 60.0334 169.162 59.0569C170.4 58.0414 171.029 56.5767 171.029 54.6628C171.029 52.7098 170.498 51.3037 169.457 50.3663C168.396 49.4484 166.746 48.9992 164.506 48.9992H160.754V60.5216V60.5411ZM179.339 54.3698C179.339 58.5491 178.042 61.7519 175.41 63.9783C172.816 66.1851 169.103 67.2983 164.29 67.2983H160.754V81.1251H152.502V42.2421H164.919C169.634 42.2421 173.209 43.2576 175.645 45.2887C178.121 47.3197 179.339 50.3468 179.339 54.3698V54.3698Z" fill="white"/>
<path d="M126.098 54.448L105.568 36.6763H143.564L126.098 54.448V54.448Z" fill="#666666"/>
<path d="M119.36 27.4193H131.226C131.756 27.4193 132.188 27.8099 132.208 28.3567C132.228 30.7979 132.208 37.4379 131.128 40.7774C130.087 43.3947 128.568 45.7982 126.648 47.8666V49.7414C126.648 50.0446 126.719 50.3436 126.856 50.6148C126.992 50.886 127.19 51.1219 127.434 51.3038L128.947 52.417C128.98 52.4416 129.004 52.4758 129.017 52.515C129.029 52.5541 129.028 52.5961 129.015 52.635C129.002 52.6738 128.977 52.7077 128.944 52.7316C128.91 52.7556 128.87 52.7685 128.829 52.7685H121.737C121.696 52.7685 121.655 52.7556 121.622 52.7316C121.588 52.7077 121.563 52.6738 121.55 52.635C121.537 52.5961 121.537 52.5541 121.549 52.515C121.562 52.4758 121.586 52.4416 121.619 52.417L123.112 51.3038C123.356 51.1219 123.554 50.886 123.69 50.6148C123.827 50.3436 123.898 50.0446 123.898 49.7414V47.7494C122.139 45.6718 120.744 43.3149 119.772 40.7774C118.692 37.4574 118.456 30.876 118.397 28.3958C118.397 27.849 118.829 27.4193 119.379 27.4193H119.36Z" fill="white"/>
<path d="M130.833 28.7864H136.314C136.314 28.7864 135.803 34.7233 133.583 38.3753C131.481 41.8125 126.707 45.2301 126.707 45.2301M119.753 28.7864H114.271C114.271 28.7864 114.782 34.7233 117.022 38.3753C119.104 41.8125 123.898 45.2301 123.898 45.2301L119.753 28.7864Z" stroke="white"/>
<path d="M89.9103 118.934L90.6568 121.219H93.0929L91.1283 122.645L91.8749 124.949L89.9103 123.523L87.9457 124.949L88.6922 122.645L86.7276 121.219H89.1441L89.9103 118.915V118.934ZM160.341 118.934L159.595 121.219H157.159L159.123 122.645L158.377 124.949L160.341 123.523L162.306 124.949L161.559 122.645L163.524 121.219H161.088L160.341 118.915V118.934ZM104.998 124.48L106.138 127.937H109.792L106.845 130.066L107.965 133.523L105.018 131.374L102.051 133.523L103.171 130.066L100.224 127.918H103.879L104.998 124.48V124.48ZM145.253 124.48L144.114 127.937H140.459L143.406 130.066L142.287 133.523L145.233 131.374L148.2 133.523L147.08 130.066L150.027 127.918H146.373L145.253 124.48V124.48ZM125.116 127.8L127.002 133.562H133.092L128.181 137.135L130.047 142.897L125.136 139.323L120.204 142.897L122.071 137.135L117.159 133.562H123.25L125.116 127.8V127.8Z" fill="white"/>
<path d="M30.8937 78.7816H220.242V111.337H30.8937V78.7816Z" fill="#333333" stroke="white"/>
<path d="M35.1961 82.4922H216.431V106.982H35.1961V82.4922Z" stroke="white"/>
<path d="M68.8105 94.7177C68.8105 96.6316 68.28 98.0768 67.2192 99.0923C66.1583 100.088 64.6259 100.596 62.622 100.596H59.3804V89.0737H62.956C64.8027 89.0737 66.2369 89.5619 67.2781 90.5579C68.2997 91.5344 68.8105 92.921 68.8105 94.7177V94.7177ZM66.8066 94.7763C66.8066 92.0422 65.51 90.6361 62.9167 90.6361H61.2664V99.0142H62.622C65.4117 99.0142 66.8066 97.6081 66.8066 94.7763ZM79.9891 100.596H73.4273V89.0737H79.9891V90.6556H75.3133V93.7998H79.6944V95.3622H75.3133V98.9947H79.9891V100.596ZM91.3052 97.4518C91.3052 98.4869 90.9123 99.3071 90.1854 99.8735C89.4388 100.459 88.4172 100.752 87.1009 100.752C85.7846 100.752 84.7041 100.557 83.879 100.166V98.3697C84.9298 98.8459 86.0647 99.1113 87.2188 99.1509C87.9654 99.1509 88.5351 99.0142 88.8887 98.7408C89.0641 98.6055 89.204 98.4301 89.2964 98.2294C89.3887 98.0288 89.4309 97.8089 89.4192 97.5885C89.4192 97.1589 89.262 96.8074 88.928 96.4949C88.3124 96.0414 87.6298 95.6857 86.9045 95.4403C86.0456 95.1476 85.2752 94.6438 84.6648 93.9756C84.2261 93.4122 83.9971 92.7153 84.0165 92.0031C84.0165 91.0267 84.3505 90.2845 85.0381 89.7377C85.7257 89.1714 86.6491 88.8979 87.8082 88.8979C88.928 88.8979 90.0282 89.1518 91.1284 89.6205L90.539 91.1829C89.4977 90.7337 88.5744 90.5189 87.7689 90.5189C87.1402 90.5189 86.6884 90.6556 86.374 90.9095C86.2148 91.0348 86.0874 91.1955 86.0021 91.3786C85.9168 91.5618 85.876 91.7623 85.8829 91.9641C85.8829 92.2765 85.9615 92.5304 86.0793 92.7452C86.2427 92.9844 86.4574 93.1845 86.708 93.3311C87.0027 93.5264 87.5135 93.7803 88.2797 94.0928C89.1245 94.4443 89.7531 94.7763 90.1461 95.0692C90.539 95.3817 90.8337 95.7332 91.0301 96.1043C91.2266 96.4949 91.3052 96.9441 91.3052 97.4714V97.4518ZM95.6666 100.596V89.0737H97.5526V100.596H95.6666ZM107.493 94.3271H111.757V100.127C110.433 100.565 109.045 100.777 107.651 100.752C105.902 100.752 104.547 100.245 103.604 99.2095C102.583 97.9856 102.07 96.4213 102.169 94.8349C102.169 92.9796 102.7 91.5149 103.78 90.4798C104.861 89.4252 106.334 88.9175 108.22 88.9175C109.419 88.9175 110.578 89.1323 111.658 89.601L110.99 91.1634C110.106 90.7456 109.141 90.5256 108.161 90.5189C106.924 90.5189 105.961 90.9095 105.215 91.6907C104.507 92.4523 104.154 93.5069 104.154 94.8544C104.154 96.2605 104.468 97.3347 105.136 98.0768C105.765 98.7994 106.708 99.1704 107.926 99.1704C108.535 99.1704 109.183 99.0923 109.89 98.9361V95.9676H107.493V94.3467V94.3271ZM126.334 100.596H123.996L118.299 91.4172H118.24L118.279 91.925C118.338 92.9015 118.377 93.7998 118.377 94.6005V100.596H116.668V89.0737H118.967L124.664 98.2135H124.703C124.634 97.1798 124.595 96.1443 124.586 95.1083V89.0542H126.334V100.596V100.596ZM139.713 100.596H137.827V89.0737H144.389V90.6556H139.713V94.2685H144.094V95.87H139.713V100.596V100.596ZM148.593 100.596V89.0737H150.499V100.596H148.593ZM157.571 94.4248H158.887C159.772 94.4248 160.42 94.2685 160.813 93.9365C161.206 93.6241 161.402 93.1358 161.402 92.4914C161.402 91.8469 161.206 91.3782 160.754 91.0852C160.166 90.7633 159.498 90.6143 158.829 90.6556H157.571V94.4248ZM157.571 95.9871V100.596H155.685V89.0737H158.946C160.459 89.0737 161.559 89.3471 162.286 89.8939C162.993 90.4603 163.367 91.3001 163.367 92.4328C163.367 93.8584 162.601 94.8935 161.107 95.4989L164.388 100.596H162.227L159.438 95.9871H157.571ZM173.209 100.596L169.83 90.9681H169.771C169.87 92.3937 169.909 93.7412 169.909 94.9911V100.596H168.18V89.0737H170.852L174.074 98.2525H174.133L177.453 89.0737H180.125V100.596H178.298V94.913C178.306 93.6103 178.345 92.308 178.416 91.0071H178.357L174.879 100.616H173.209V100.596ZM191.991 97.4518C191.991 98.4869 191.598 99.3071 190.871 99.8735C190.125 100.459 189.103 100.752 187.787 100.752C186.47 100.752 185.39 100.557 184.565 100.166V98.3697C185.616 98.8459 186.751 99.1113 187.905 99.1509C188.651 99.1509 189.201 99.0142 189.555 98.7408C189.734 98.6076 189.878 98.4331 189.973 98.2323C190.069 98.0316 190.114 97.8106 190.105 97.5885C190.105 97.1589 189.948 96.8074 189.614 96.4949C188.992 96.0396 188.303 95.6838 187.571 95.4403C186.719 95.1447 185.955 94.641 185.351 93.9756C184.905 93.4148 184.669 92.7177 184.683 92.0031C184.683 91.0267 185.036 90.2845 185.724 89.7377C186.412 89.1714 187.335 88.8979 188.474 88.8979C189.594 88.8979 190.714 89.1518 191.814 89.6205L191.225 91.1829C190.184 90.7337 189.26 90.5189 188.435 90.5189C187.846 90.5189 187.374 90.6556 187.06 90.9095C186.901 91.0348 186.773 91.1955 186.688 91.3786C186.603 91.5618 186.562 91.7623 186.569 91.9641C186.569 92.2765 186.628 92.5304 186.765 92.7452C186.929 92.9844 187.143 93.1845 187.394 93.3311C187.689 93.5264 188.199 93.7803 188.966 94.0928C189.81 94.4443 190.439 94.7763 190.832 95.0692C191.225 95.3817 191.52 95.7332 191.716 96.1043C191.893 96.4949 191.991 96.9441 191.991 97.4714V97.4518Z" fill="white"/>
<path d="M115.922 20.6425L118.868 26.1498H131.874L134.821 20.6425L133.289 22.1854C133.033 22.4588 132.699 22.6541 132.346 22.7908C131.383 23.1423 130.774 22.6736 130.774 21.5409L131.285 18.4357L129.87 20.5058C129.674 20.8183 129.418 21.1112 129.124 21.3261C128.318 21.9119 127.67 21.9119 127.08 21.287C126.866 21.0385 126.711 20.7446 126.629 20.4277L125.371 16.1117L124.251 20.3496C124.173 20.6425 124.055 20.9159 123.859 21.1308C123.23 21.951 122.287 22.0096 121.599 21.1698C121.442 20.9745 121.305 20.7792 121.167 20.5449L119.87 18.4357L120.204 21.3651C120.204 21.619 120.165 21.8924 120.067 22.1463C119.733 22.9861 119.006 23.2595 118.043 22.615C117.89 22.5173 117.745 22.4062 117.611 22.283L115.922 20.6425V20.6425ZM125.843 15.2719C125.871 15.2063 125.884 15.1353 125.881 15.0641C125.878 14.9929 125.86 14.9231 125.827 14.8597C125.795 14.7962 125.749 14.7406 125.692 14.6969C125.635 14.6531 125.57 14.6221 125.5 14.6062C125.43 14.5903 125.358 14.5898 125.287 14.6047C125.217 14.6196 125.151 14.6496 125.094 14.6926C125.037 14.7356 124.99 14.7905 124.956 14.8534C124.923 14.9164 124.903 14.9859 124.9 15.0571C124.894 15.1718 124.929 15.2849 124.998 15.3765C125.068 15.4681 125.168 15.5324 125.281 15.558C125.393 15.5837 125.511 15.569 125.614 15.5167C125.717 15.4644 125.798 15.3777 125.843 15.2719ZM132.031 17.967C132.088 17.925 132.134 17.8715 132.168 17.8101C132.201 17.7487 132.222 17.6808 132.227 17.611C132.231 17.5413 132.221 17.4712 132.197 17.4057C132.172 17.3402 132.134 17.2806 132.084 17.2312C132.034 17.1817 131.974 17.1435 131.908 17.119C131.842 17.0945 131.772 17.0845 131.702 17.0894C131.632 17.0944 131.563 17.1143 131.501 17.1477C131.44 17.1812 131.386 17.2275 131.344 17.2835C131.273 17.3775 131.238 17.4938 131.247 17.611C131.255 17.7283 131.306 17.8385 131.389 17.9217C131.473 18.0048 131.584 18.0551 131.702 18.0634C131.82 18.0718 131.937 18.0375 132.031 17.967V17.967ZM119.87 17.967C119.927 17.925 119.973 17.8715 120.007 17.8101C120.041 17.7487 120.061 17.6808 120.066 17.611C120.071 17.5413 120.06 17.4712 120.036 17.4057C120.011 17.3402 119.973 17.2806 119.923 17.2312C119.873 17.1817 119.813 17.1435 119.747 17.119C119.682 17.0945 119.611 17.0845 119.541 17.0894C119.471 17.0944 119.402 17.1143 119.341 17.1477C119.279 17.1812 119.225 17.2275 119.183 17.2835C119.112 17.3775 119.077 17.4938 119.086 17.611C119.094 17.7283 119.145 17.8385 119.228 17.9217C119.312 18.0048 119.423 18.0551 119.541 18.0634C119.659 18.0718 119.776 18.0375 119.87 17.967V17.967ZM115.922 20.3301C115.983 20.29 116.035 20.2366 116.073 20.174C116.111 20.1114 116.134 20.041 116.141 19.9682C116.148 19.8954 116.139 19.8219 116.113 19.7532C116.088 19.6846 116.047 19.6224 115.995 19.5715C115.942 19.5205 115.878 19.4819 115.808 19.4587C115.739 19.4355 115.664 19.4281 115.591 19.4372C115.518 19.4463 115.448 19.4716 115.386 19.5112C115.325 19.5508 115.272 19.6037 115.234 19.6661C115.175 19.7606 115.151 19.8721 115.165 19.9823C115.179 20.0924 115.23 20.1945 115.31 20.2719C115.39 20.3492 115.494 20.3971 115.606 20.4077C115.717 20.4183 115.828 20.3909 115.922 20.3301V20.3301ZM135.764 20.0176C135.793 19.9497 135.805 19.8762 135.802 19.8026C135.798 19.7291 135.777 19.6574 135.741 19.5929C135.705 19.5284 135.655 19.4728 135.595 19.4303C135.534 19.3877 135.465 19.3593 135.392 19.3472C135.319 19.3351 135.244 19.3396 135.173 19.3603C135.102 19.3811 135.036 19.4176 134.981 19.467C134.926 19.5165 134.883 19.5776 134.856 19.6459C134.828 19.7142 134.816 19.7879 134.821 19.8614C134.828 19.9711 134.873 20.0751 134.947 20.1566C135.021 20.2381 135.121 20.2923 135.23 20.3104C135.339 20.3285 135.452 20.3094 135.548 20.2563C135.645 20.2031 135.721 20.119 135.764 20.0176V20.0176Z" fill="white"/>
</g>
<defs>
<clipPath id="clip0">
<rect width="222" height="166" fill="white" transform="translate(15)"/>
</clipPath>
</defs>
</svg>
