<?xml version="1.0" encoding="UTF-8" standalone="no"?><svg width="192" height="192" viewBox="0 0 192 192" fill="none" xmlns="http://www.w3.org/2000/svg">
<rect width="192" height="192" fill="#386664"/>
<path d="M156.945 119.474L156.861 119.055C156.778 118.72 156.778 118.385 156.694 118.049C155.941 113.186 153.599 109.246 149.751 106.395C147.827 104.97 145.652 103.796 143.393 102.623C142.389 102.12 141.386 101.533 140.382 100.946C138.709 100.024 137.119 99.1014 135.446 98.1791C133.522 97.0892 131.515 95.9993 129.591 94.9093C129.256 94.7417 129.005 94.574 128.67 94.4063C128.419 94.2386 128.085 94.1548 127.75 93.9871C127.332 93.8194 126.914 93.6517 126.495 93.484C120.556 91.2203 115.62 91.7234 112.525 92.5618C111.521 92.7294 110.601 93.0648 109.765 93.484C109.597 93.5678 109.347 93.7355 109.179 93.8194C109.179 93.8194 109.096 93.8194 109.096 93.9032C106.837 95.1608 104.495 96.3346 102.236 97.5922C97.7188 100.024 93.1179 102.539 88.6006 105.054C86.9276 105.976 86.342 107.402 86.091 108.324C85.7564 109.749 86.0074 111.342 86.8439 112.432C88.8516 115.366 91.9467 114.779 93.3688 114.025C95.8784 112.683 98.4716 111.258 100.898 109.833C102.152 109.162 103.324 108.408 104.578 107.737C105.331 107.318 106 106.898 106.753 106.479C108.426 105.557 110.099 104.551 111.856 103.629C112.191 103.461 112.525 103.293 112.86 103.042C114.031 102.371 115.37 101.533 117.043 101.449C117.712 101.281 118.381 101.281 119.134 101.449C120.64 101.616 121.811 102.203 122.982 102.79C125.157 103.964 127.248 105.222 129.423 106.395C133.355 108.575 137.538 110.923 141.553 113.103C144.397 114.696 147.492 118.049 146.488 122.577C145.819 125.679 142.975 128.613 140.047 129.116C139.545 129.284 139.127 129.284 138.96 129.284C138.792 129.284 138.709 129.368 138.541 129.368H138.29C138.039 129.368 137.789 129.368 137.538 129.368C109.765 129.368 82.0757 129.368 54.3029 129.368C54.052 129.368 53.801 129.368 53.55 129.368L53.2126 129.385C53.0453 129.385 52.9417 129.385 52.7743 129.385C52.5234 129.385 52.3058 129.436 51.8979 129.385C49.8902 129.134 48.1126 127.775 46.7742 125.846C45.2684 123.75 44.7665 121.319 45.352 118.888C45.9376 116.456 47.527 114.444 49.7856 113.186C52.0443 112.013 54.3866 110.755 56.8125 109.33C58.9038 108.156 60.9115 107.066 63.0028 105.892C65.1778 104.635 67.4364 103.377 69.6114 102.203C71.4518 101.197 73.3758 100.107 75.2162 99.1013C76.9729 98.1791 78.7296 97.173 80.4863 96.1669C84.0833 94.1548 88.7679 91.5557 93.5361 88.8728C98.388 86.106 100.814 82.0817 100.981 76.6321C101.149 73.8654 100.145 71.6017 98.137 69.5057C97.3005 68.6673 96.464 67.9127 95.6275 67.0743C94.0381 65.5652 92.4486 63.9722 90.9429 62.3793C89.2698 60.7025 88.7679 58.5226 89.3535 56.1751C90.0227 53.8275 91.6958 51.9831 94.0381 51.3962C96.3803 50.7255 98.8063 51.48 100.647 53.2407C102.32 54.8336 103.909 56.5105 105.498 58.1873C106.753 59.5287 108.008 60.7864 109.347 62.1278C110.267 63.0501 111.521 63.5531 112.944 63.5531C114.366 63.5531 115.621 62.9662 116.541 61.9601C118.548 59.7802 118.465 56.762 116.29 54.5822C115.453 53.7438 114.533 52.8215 113.696 51.9831C112.023 50.3062 110.267 48.6295 108.594 46.785C105.749 43.7667 102.403 41.9223 98.388 41.1677C98.3043 41.1677 98.2207 41.1677 98.2207 41.0838C97.9697 41.0838 97.6351 41.0838 97.3005 41C97.0496 41 96.7149 41 96.464 41C95.3765 41 94.3726 41.0001 93.3688 41.1677C89.7717 41.6708 86.7603 43.0961 84.418 45.3598C80.9882 48.6295 79.1478 52.4861 78.9805 57.0135C78.9805 57.0973 78.9805 57.0974 78.9805 57.1812C78.8969 57.7681 78.8969 58.2712 78.9805 58.7742C78.9805 58.858 78.9805 58.9418 78.9805 58.9418C79.1478 62.547 80.2353 65.6491 82.4103 68.1643C84.7526 70.931 87.5131 73.5301 90.19 76.0453C90.7756 76.6322 90.8592 77.5544 90.441 78.2251C89.939 78.8958 89.4371 79.3989 88.7679 79.8181C87.3458 80.5726 86.0074 81.3271 84.5853 82.1656C82.7449 83.2555 80.8209 84.2616 78.9805 85.2677C76.8056 86.4415 74.7142 87.6152 72.5392 88.789C70.3643 89.9627 68.2729 91.1365 66.098 92.3103C59.6567 95.9154 53.1318 99.5205 46.6905 103.126L46.1049 103.461C44.0136 104.635 42.0896 105.725 40.5002 107.234C37.0704 110.671 35.3137 114.444 35.0627 118.888C34.9791 119.978 34.9791 120.984 35.0627 121.99C35.23 124.84 36.0666 127.607 37.5723 130.29C38.9108 132.554 40.5002 134.147 42.4242 135.656C45.6867 138.003 49.451 138.925 53.9683 138.925C73.5431 138.925 93.1179 138.925 112.693 138.925H137.287C138.625 138.925 139.964 139.093 141.218 138.925C144.899 138.422 148.161 136.997 150.755 134.482C154.268 131.212 156.276 127.104 156.861 121.906C157.029 121.487 157.029 120.481 156.945 119.474Z" fill="white"/>
</svg>
