<?xml version="1.0" encoding="UTF-8" standalone="no"?><svg width="192" height="192" viewBox="0 0 192 192" fill="none" xmlns="http://www.w3.org/2000/svg">
<rect width="192" height="192" fill="#222222"/>
<path d="M54.7855 65.9507L63.9506 56.7856C64.998 55.7381 66.5692 55.7381 67.6166 56.7856L94.4573 83.6262L105.455 94.6243C106.503 95.6718 106.503 97.2429 105.455 98.2904L94.4573 109.289L67.6166 136.129C66.5692 137.177 64.998 137.177 63.9506 136.129L54.7855 126.964C53.738 125.917 53.738 124.345 54.7855 123.298L79.7931 98.2904C80.8405 97.2429 80.8405 95.6718 79.7931 94.6243L54.7855 69.6167C53.738 68.5693 53.738 66.9981 54.7855 65.9507Z" fill="#F9D549"/>
<circle cx="128.354" cy="66.0571" r="10.0571" fill="#F9D549"/>
</svg>
